<?xml version="1.0" encoding="utf-8"?>
<!-- Generator: Adobe Illustrator 21.1.0, SVG Export Plug-In . SVG Version: 6.00 Build 0)  -->
<svg version="1.1" id="Layer_1" xmlns="http://www.w3.org/2000/svg" xmlns:xlink="http://www.w3.org/1999/xlink" x="0px" y="0px"
	 viewBox="0 0 112.3 112.3" style="enable-background:new 0 0 112.3 112.3;" xml:space="preserve">
<style type="text/css">
	.st0{fill:#DBB767;}
	.st1{fill:#00897B;}
	.st2{fill:#EFEFF0;}
</style>
<title>grievance</title>
<desc>Created with Sketch.</desc>
<path class="st0" d="M19.2,51.9h31.9c10.6,0,19.2,8.6,19.2,19.2v8c0,10.6-8.6,19.2-19.2,19.2l0,0H32.4l-12.8,12.6
	c-2.4,2.4-4.5,1.6-4.5-1.9V97.8C6.3,95.9,0,88.1,0,79.1v-8C0,60.5,8.6,51.9,19.2,51.9L19.2,51.9z"/>
<path class="st1" d="M82.5,1H40C23.6,1,10.2,14.4,10.2,30.8v12.4C10.2,59.7,23.6,73,40,73h22l19.9,19.7c3.8,3.8,6.9,2.5,6.9-2.9
	V72.3c13.7-3,23.4-15.1,23.4-29.1V30.8C112.3,14.4,98.9,1,82.5,1L82.5,1z"/>
<path class="st2" d="M31.7,35.8c0,3.5,2.8,6.4,6.4,6.4c3.5,0,6.4-2.8,6.4-6.4c0-3.5-2.8-6.4-6.4-6.4l0,0
	C34.6,29.5,31.7,32.3,31.7,35.8z"/>
<path class="st2" d="M54.4,35.8c0,3.5,2.8,6.4,6.4,6.4c3.5,0,6.4-2.8,6.4-6.4c0-3.5-2.8-6.4-6.3-6.4C57.2,29.5,54.4,32.3,54.4,35.8
	L54.4,35.8z"/>
<path class="st2" d="M77,35.8c0,3.5,2.8,6.4,6.4,6.4c3.5,0,6.4-2.8,6.4-6.4c0-3.5-2.8-6.4-6.4-6.4l0,0C79.9,29.5,77,32.3,77,35.8z"
	/>
</svg>
