<?xml version="1.0" encoding="utf-8"?>
<!-- Generator: Adobe Illustrator 21.1.0, SVG Export Plug-In . SVG Version: 6.00 Build 0)  -->
<svg version="1.1" id="Layer_1" xmlns="http://www.w3.org/2000/svg" xmlns:xlink="http://www.w3.org/1999/xlink" x="0px" y="0px"
	 viewBox="0 0 112.3 112.3" style="enable-background:new 0 0 112.3 112.3;" xml:space="preserve">
<style type="text/css">
	.st0{fill:#42A5F5;}
	.st1{fill:#90CAF9;}
	.st2{fill:#E1F5FE;}
	.st3{fill:#1976D2;}
</style>
<title>grievance</title>
<desc>Created with Sketch.</desc>
<g id="Page-1">
	<g id="iPhone-7" transform="translate(-39.000000, -411.000000)">
		<g id="questions" transform="translate(44.000000, 413.607323)">
			<polygon id="Shape_39_" class="st0" points="85,109.7 6.2,109.7 6.2,8.6 62.5,8.6 85,31 			"/>
			<polygon id="Shape_38_" class="st1" points="96.1,98.5 17.3,98.5 17.3,-2.6 73.6,-2.6 96.1,19.9 			"/>
			<polygon id="Shape_37_" class="st2" points="91.7,22.1 70.7,22.1 70.7,1.1 			"/>
			<path id="Shape_36_" class="st3" d="M52.4,65.6c0-13.1,10.1-12.3,10.1-20.1c0-2-0.6-5.9-5.6-5.9c-5.6,0-5.9,4.5-5.9,5.6h-7.6
				c0-2,0.8-11.7,13.4-11.7c12.9,0,13.1,10.1,13.1,12c0,9.8-10.6,11.2-10.6,20.4h-7V65.6z M51.9,75.1c0-0.6,0-4.2,4.2-4.2
				c3.9,0,4.2,3.6,4.2,4.2c0,1.1-0.6,3.9-4.2,3.9S51.9,76.2,51.9,75.1z"/>
		</g>
	</g>
</g>
</svg>
