<?xml version="1.0" encoding="utf-8"?>
<!-- Generator: Adobe Illustrator 21.1.0, SVG Export Plug-In . SVG Version: 6.00 Build 0)  -->
<svg version="1.1" id="Layer_1" xmlns="http://www.w3.org/2000/svg" xmlns:xlink="http://www.w3.org/1999/xlink" x="0px" y="0px"
	 viewBox="0 0 48 48" style="enable-background:new 0 0 48 48;" xml:space="preserve">
<style type="text/css">
	.st0{fill:#037567;}
	.st1{fill:#00897B;}
	.st2{fill:#DBB767;}
</style>
<path class="st0" d="M40,40c-6.9,0-16,4-16,4V22c0,0,9-4,18-4L40,40z"/>
<path class="st1" d="M8,40c6.9,0,16,4,16,4V22c0,0-9-4-18-4L8,40z"/>
<g>
	<circle class="st2" cx="24" cy="12" r="8"/>
	<path class="st2" d="M41,32h1c0.6,0,1-0.4,1-1v-4c0-0.6-0.4-1-1-1h-1c-1.7,0-3,1.3-3,3l0,0C38,30.7,39.3,32,41,32z"/>
	<path class="st2" d="M7,26H6c-0.6,0-1,0.4-1,1v4c0,0.6,0.4,1,1,1h1c1.7,0,3-1.3,3-3l0,0C10,27.3,8.7,26,7,26z"/>
</g>
</svg>
