<?xml version="1.0" encoding="utf-8"?>
<!-- Generator: Adobe Illustrator 21.1.0, SVG Export Plug-In . SVG Version: 6.00 Build 0)  -->
<svg version="1.1" id="Layer_1" xmlns="http://www.w3.org/2000/svg" xmlns:xlink="http://www.w3.org/1999/xlink" x="0px" y="0px"
	 viewBox="0 0 112.3 112.3" style="enable-background:new 0 0 112.3 112.3;" xml:space="preserve">
<style type="text/css">
	.st0{fill:#FFFFFF;}
	.st1{fill:#D0D1D3;}
	.st2{fill:#C92F00;}
	.st3{fill:#930000;}
</style>
<title>grievance</title>
<desc>Created with Sketch.</desc>
<g id="Page-1">
	<g id="support1">
		<g id="Group">
			<path id="Shape" class="st0" d="M89.6,11.1C64.7-7.4,29.6-2.2,11.1,22.7s-13.3,60.1,11.6,78.6s60.1,13.3,78.6-11.6
				c8.9-12,12.6-27,10.5-41.7C109.5,33.2,101.6,20,89.6,11.1z M39.4,78.7c-9.1-6.8-13.3-18.4-10.5-29.4S40.8,30,52,28.4
				c11.2-1.7,22.4,3.6,28.2,13.4c5.8,9.7,5.2,22-1.6,31.2C69.4,85.3,51.9,87.9,39.4,78.7L39.4,78.7z"/>
			<path id="Shape_1_" class="st1" d="M89.6,11.1C79.9,3.8,68.1-0.1,55.9,0v28.1c10.2-0.2,19.7,5.1,24.8,13.9
				c5.2,8.8,5.2,19.7,0,28.4c-5.2,8.8-14.6,14.1-24.8,13.9v28.1c24.3,0.1,45.8-15.4,53.5-38.4S109.1,25.5,89.6,11.1z"/>
			<path id="Shape_2_" class="st2" d="M4.2,77.6l26-10.7c-2.8-6.9-2.8-14.6,0-21.5L4.3,34.6C-1.4,48.4-1.4,63.8,4.2,77.6z"/>
			<path id="Shape_3_" class="st3" d="M108.1,34.7l-26,10.7c2.8,6.9,2.8,14.6,0,21.5L108,77.7C113.7,63.9,113.7,48.5,108.1,34.7
				L108.1,34.7z"/>
			<path id="Shape_4_" class="st2" d="M34.7,4.3l10.7,26c6.9-2.8,14.6-2.8,21.5,0L77.7,4.3C63.9-1.4,48.5-1.4,34.7,4.3L34.7,4.3z"/>
			<path id="Shape_5_" class="st2" d="M77.6,108.1l-10.7-26c-6.9,2.8-14.6,2.8-21.5,0L34.6,108C48.4,113.7,63.8,113.7,77.6,108.1
				L77.6,108.1z"/>
			<path id="Shape_6_" class="st3" d="M55.9,0v28.1c3.8,0,7.5,0.7,11,2.1L77.7,4.3C70.8,1.4,63.4,0,55.9,0L55.9,0z"/>
			<path id="Shape_7_" class="st3" d="M77.6,108.1l-10.7-26c-3.5,1.4-7.2,2.1-10.9,2.1v28.1C63.4,112.3,70.7,110.9,77.6,108.1
				L77.6,108.1z"/>
		</g>
	</g>
</g>
</svg>
