<svg xmlns="http://www.w3.org/2000/svg" viewBox="0 0 248.76 182.52"><defs><style>.a{fill:#001f5f}.b,.c{fill:#fff}.c,.f{fill-rule:evenodd}.d,.f{fill:#e2231a}.e{fill:#ffdb00}</style></defs><title>Alo_155</title><path class="a" d="M124.38.79A84.81,84.81,0,0,0,110.85,2,65.13,65.13,0,0,0,95.26,7.23c-7.38,3.29-13.86,8.54-19.73,14L79,25,66,35.16l4.25,3.11L60.15,45.91l4.86,2a83.84,83.84,0,0,0-3.18,14A65.87,65.87,0,0,0,73.63,107c2.91,4,7.44,6.89,5.7,12.27-1,2-2.18,4.58-3.08,6.62,2.18-.23,3.92-1.14,5.2.79a116.14,116.14,0,0,1,6,12.84c6.26,14,11.12,31,28.51,33.69,4.7.46,6.54,4.41,8.39,8.26,1.85-3.85,3.69-7.8,8.38-8.26,17.38-2.66,22.25-19.67,28.51-33.69a114.59,114.59,0,0,1,6-12.84c1.29-1.92,3-1,5.2-.79-.89-2-2.07-4.64-3.07-6.62-1.73-5.37,2.79-8.31,5.7-12.27a65.88,65.88,0,0,0,11.8-45.18,83.83,83.83,0,0,0-3.18-14l4.86-2-10.07-7.64,4.25-3.11L169.77,25l3.47-3.79c-5.87-5.43-12.35-10.68-19.73-14A65.29,65.29,0,0,0,137.91,2,84.84,84.84,0,0,0,124.38.79"/><path class="b" d="M184.09,47.81l4.89-2-10.13-7.66L183.13,35,170,24.84l3.49-3.8c-5.9-5.44-12.43-10.71-19.86-14l-1-.47A67.08,67.08,0,0,0,138,1.76a78.36,78.36,0,0,0-27.22,0A65.5,65.5,0,0,0,95.05,7a50.08,50.08,0,0,0-4.78,2.45A87.54,87.54,0,0,0,75.2,21l3.49,3.8L65.58,35l4.27,3.12L59.73,45.82l4.9,2a84.3,84.3,0,0,0-3.21,14,65.89,65.89,0,0,0,11.87,45.3c2.92,4,7.47,6.92,5.73,12.31-1,2-2.19,4.59-3.09,6.64,2.2-.23,3.94-1.13,5.23.79a117,117,0,0,1,6.07,12.88c1,2.3,2,4.67,3,7.06,5.2,12.2,11,24.51,25.65,26.74,4.72.45,6.58,4.42,8.44,8.28,1.86-3.86,3.71-7.82,8.43-8.28,9.74-1.48,15.57-7.43,19.91-14.83,3.46-5.9,6-12.73,8.77-19a116.74,116.74,0,0,1,6.08-12.88c1.29-1.92,3-1,5.23-.79-.9-2-2.08-4.65-3.1-6.64-1.74-5.38,2.81-8.34,5.74-12.31a65.87,65.87,0,0,0,11.87-45.3,84.22,84.22,0,0,0-3.2-14M77.45,21.16c3.29-3.61,8.28-7.1,12.82-9.77.88-.52,1.75-1,2.59-1.47,2.31-1.25,4.89-2.38,7.31-3.4a68.29,68.29,0,0,1,48.37,0c1.36.57,2.78,1.18,4.16,1.83,1.08.5,2.14,1,3.15,1.57,5.12,2.78,11.47,6.92,15.41,11.23l-3.6,3.91-4,3.74a56.72,56.72,0,0,1,16.59,36.06c1,12.59-2.7,25.18-9.45,35.67a55.84,55.84,0,0,1-92.91,0C71.15,90,67.44,77.46,68.45,64.87A56.66,56.66,0,0,1,85,28.81l-4-3.74Zm8.89,112.38c-.79-1.75-1.86-3.74-2.7-5.5-1.35-2.55-1.8-4.09-5.12-3.91,1.69-3.62,3-5.89,2.25-8.9a36.7,36.7,0,0,1,3.15,6l3.31,8.34c.89,2,1.92,4.15,3,6.26,4.19,7.93,9.45,15.49,11.76,14.72a4.65,4.65,0,0,0-1,2.27c-.9-.68-1.8-1.53-2.48-2.1a43.66,43.66,0,0,1-7.37-7.77c-.29-.36-.62-.78-1-1.21l-.9-1.17C88.42,138.24,87.29,135.75,86.33,133.54Zm16.93,32.21c-5.8-6.12-9.58-14.34-13-22.62l-.28-.68.28.4a39.83,39.83,0,0,0,4.16,5c.73,1.82,1.24,4.09,2,5.85,2.81,6.4,9.28,16,17.16,16.78a5.07,5.07,0,0,0,.23.91A22.88,22.88,0,0,1,103.26,165.74Zm21.09,12.36a20,20,0,0,0-4.39-4.82,3.63,3.63,0,0,0,2.19-3.11c0-.17-.11-.34-.11-.57a6.11,6.11,0,0,1,4.61,0c0,.23-.11.4-.11.57a3.63,3.63,0,0,0,2.19,3.11A20,20,0,0,0,124.36,178.1Zm-3-10a10.08,10.08,0,0,1,6,0,4.34,4.34,0,0,0-.56,1,6.73,6.73,0,0,0-4.83,0A4.37,4.37,0,0,0,121.37,168.13Zm6.53-.51c-.28-.11-.62-.22-1-.33a14.87,14.87,0,0,0-5.18,0c-.34.11-.67.22-1,.33a4,4,0,0,0-1.46-.73,15.11,15.11,0,0,1,10,0A4,4,0,0,0,127.9,167.62Zm24.8-12.12a49.13,49.13,0,0,1-7.26,10.25,22.88,22.88,0,0,1-10.57,5.62,4.71,4.71,0,0,0,.22-.91c7.88-.73,14.34-10.37,17.16-16.78.16-.36.31-.74.45-1.13.55-1.53,1-3.27,1.57-4.72a40.15,40.15,0,0,0,4.44-5.39A128,128,0,0,1,152.7,155.5Zm17.49-31.37c-3.32-.18-3.77,1.36-5.11,3.91-.85,1.76-1.92,3.75-2.7,5.5-1,2.21-2.09,4.71-3,7-.62.8-1.3,1.7-1.86,2.38a34.67,34.67,0,0,1-4.78,5.42c-.85.8-1.71,1.57-2.59,2.35-.68.57-1.58,1.42-2.48,2.1a4.7,4.7,0,0,0-1-2.27c1.31.43,3.56-1.8,6-5.25a96.21,96.21,0,0,0,8.77-15.73l3.31-8.34a37.08,37.08,0,0,1,3.15-6C167.15,118.23,168.51,120.5,170.19,124.13Zm15.53-47.86c-1.35,12.53-7.37,26.65-16.26,35.61a14,14,0,0,0-1,1.76c-2,1.53-2.93,1-2.93,1a5.44,5.44,0,0,1-1.07-2.21c-1.3,2.44.51,2.38-.79,4.2-9.05,1-2.53,3.92-10.18,10.09a10.42,10.42,0,0,0,5.12-1.13c-.14,6-2.84,13.18-6,18.3-2.16,3.55-4.52,6.1-6.35,6.53a2.65,2.65,0,0,0-2.65.86c-.28.51-.85,2.49.62,3.51.62.29,1.74.74,2.25.12a4.59,4.59,0,0,0,1.07-1.36c1.59-1.35,3.45-2.75,5.06-4.19l.62-.57c-.2.61-.4,1.21-.62,1.8a39.88,39.88,0,0,1-9.17,14.87c-2,1.53-5.46,4.25-8.44,4.42a3.91,3.91,0,0,0-3.43-3.06,17,17,0,0,0-7.31-2,17,17,0,0,0-7.31,2,3.92,3.92,0,0,0-3.43,3.06c-3-.17-6.47-2.89-8.44-4.42a40.82,40.82,0,0,1-9.79-16.67c1.74,1.64,3.88,3.23,5.68,4.76a4.62,4.62,0,0,0,1.07,1.36c.51.62,1.63.17,2.25-.12,1.46-1,.9-3,.62-3.51a2.64,2.64,0,0,0-2.64-.86c-4.11-1-10.78-12.43-12.09-22.09a24.6,24.6,0,0,1-.22-2.74l.22.09a10.27,10.27,0,0,0,4.9,1c-4.6-3.71-4.08-6.24-4.9-7.89-.54-1.09-1.67-1.8-5.29-2.21-1.29-1.82.51-1.76-.79-4.2a5.35,5.35,0,0,1-1.07,2.21s-1,.56-2.92-1a14.38,14.38,0,0,0-1-1.76c-8.89-9-14.9-23.07-16.25-35.61a63.94,63.94,0,0,1,3.71-29.43l7.2-5.9-11,4.42,9.67-7.2L82.8,28.81,68.17,35l11.7-9,2.93,2.72a51.85,51.85,0,0,0-8.89,12.13c-4.22,8.28-7.2,18.54-7.2,28.07a59.94,59.94,0,0,0,8.38,30.06,59.11,59.11,0,0,0,15.18,16.66,57.46,57.46,0,0,0,83.35-16.66A60,60,0,0,0,182,69c0-9.53-3-19.79-7.2-28.07a52.09,52.09,0,0,0-8.89-12.13l2.93-2.72,11.7,9-14.63-6.24,10.24,9.36,9.67,7.2-11-4.42,7.2,5.9A64.05,64.05,0,0,1,185.72,76.27Z"/><path class="a" d="M124.38,182.07l-.17-.36c-1.81-3.75-3.67-7.63-8.28-8.07-14.16-2.16-20-13.42-25.75-26.81l-.58-1.38c-.8-1.88-1.62-3.83-2.45-5.68a117.4,117.4,0,0,0-6.07-12.87,2.31,2.31,0,0,0-2.1-1.14,9.7,9.7,0,0,0-1.65.2c-.44.08-.89.16-1.37.21l-.2,0,.08-.19c.84-1.91,2.06-4.61,3.1-6.64,1.31-4.06-1-6.73-3.53-9.55-.74-.84-1.51-1.71-2.19-2.63A67,67,0,0,1,63.11,85.6,63.76,63.76,0,0,1,61.33,61.8a84,84,0,0,1,3.18-13.92l-5-2,10.17-7.69-4.27-3.12L78.54,24.83,75.05,21l.09-.08A85.71,85.71,0,0,1,90.24,9.38,50.47,50.47,0,0,1,95,6.92a65.06,65.06,0,0,1,15.72-5.28,78.48,78.48,0,0,1,27.27,0,67,67,0,0,1,14.77,4.81l1,.47c8,3.53,14.81,9.35,19.88,14l.09.08-3.48,3.79,13.13,10.23-4.27,3.12,10.17,7.69-5,2a83.07,83.07,0,0,1,3.18,13.92,63.74,63.74,0,0,1-1.78,23.81,67,67,0,0,1-10.11,21.58c-.68.92-1.45,1.79-2.19,2.63-2.49,2.82-4.85,5.49-3.53,9.57,1.06,2.06,2.27,4.77,3.09,6.62l.08.19-.21,0c-.48,0-.93-.13-1.36-.21a9.69,9.69,0,0,0-1.64-.2,2.34,2.34,0,0,0-2.11,1.15,117.2,117.2,0,0,0-6.07,12.86c-.79,1.77-1.58,3.62-2.34,5.41a118.19,118.19,0,0,1-6.44,13.57c-5.21,8.88-11.57,13.61-20,14.89-4.61.44-6.47,4.31-8.27,8.05l-.18.38M79,125.52a2.55,2.55,0,0,1,2.31,1.25,117.48,117.48,0,0,1,6.08,12.9c.83,1.86,1.66,3.8,2.46,5.69l.58,1.37c5.68,13.32,11.52,24.53,25.56,26.67,4.69.45,6.6,4.34,8.42,8.12,1.82-3.78,3.72-7.67,8.42-8.12,8.35-1.27,14.65-6,19.82-14.78a118.09,118.09,0,0,0,6.43-13.54c.76-1.79,1.55-3.65,2.34-5.42a117.35,117.35,0,0,1,6.08-12.89,2.56,2.56,0,0,1,2.31-1.26,9.93,9.93,0,0,1,1.69.21c.37.07.75.13,1.14.18-.82-1.84-2-4.43-3-6.44-1.37-4.23,1-6.95,3.57-9.82.74-.84,1.51-1.7,2.18-2.61A66.13,66.13,0,0,0,187.2,61.82a83.37,83.37,0,0,0-3.2-14l0-.1,4.79-1.95-10.09-7.63L183,35,169.87,24.86l3.5-3.81c-5-4.65-11.84-10.4-19.74-13.9l-1-.47A66.75,66.75,0,0,0,138,1.88a78.25,78.25,0,0,0-27.18,0A64.83,64.83,0,0,0,95.13,7.14a50.22,50.22,0,0,0-4.77,2.44A85.23,85.23,0,0,0,75.39,21l3.5,3.81L65.81,35l4.28,3.12L60,45.79l4.8,1.95,0,.11a84.31,84.31,0,0,0-3.2,14A66.16,66.16,0,0,0,73.41,107c.67.91,1.43,1.78,2.17,2.61,2.54,2.87,4.94,5.59,3.57,9.8-1,2-2.18,4.56-3,6.45.39,0,.77-.12,1.14-.18A9.94,9.94,0,0,1,79,125.52Zm45.4,52.83-.1-.18a18.05,18.05,0,0,0-3.94-4.41l-.56-.5.16-.08a3.52,3.52,0,0,0,2.13-3,.77.77,0,0,0,0-.21,1.22,1.22,0,0,1-.07-.36v-.08l.08,0a6.23,6.23,0,0,1,4.69,0l.08,0v.08a1.21,1.21,0,0,1-.07.36.78.78,0,0,0,0,.21,3.52,3.52,0,0,0,2.12,3l.16.08-.56.51a18,18,0,0,0-3.93,4.4Zm-4.18-5,.3.26a18.8,18.8,0,0,1,3.89,4.29,18.76,18.76,0,0,1,3.87-4.28l.3-.27a3.71,3.71,0,0,1-2.1-3.14,1,1,0,0,1,.05-.28,1.36,1.36,0,0,0,.05-.21,6,6,0,0,0-4.36,0,1.26,1.26,0,0,0,.05.21,1,1,0,0,1,.05.28A3.71,3.71,0,0,1,120.2,173.31Zm-6.14-1.78-.22-.05a23,23,0,0,1-10.63-5.64c-6-6.33-9.87-15-13-22.66l-.68-1.67.89,1.27a39.65,39.65,0,0,0,4.15,5l0,0c.34.83.63,1.77.91,2.68a29.4,29.4,0,0,0,1.11,3.16c2.57,5.85,9.06,16,17.06,16.71h.09l0,.21a4.11,4.11,0,0,0,.19.76ZM90.51,143.35c3.13,7.56,7,16.1,12.86,22.31a22.81,22.81,0,0,0,10.31,5.53,6,6,0,0,1-.13-.59v0c-8.07-.82-14.58-11-17.17-16.84a29.52,29.52,0,0,1-1.12-3.19c-.28-.9-.57-1.82-.89-2.64A38.9,38.9,0,0,1,90.51,143.35Zm44.19,28.18.08-.21a4.72,4.72,0,0,0,.21-.88l0-.09h.09c8-.75,14.48-10.85,17.06-16.71.16-.37.31-.74.45-1.12.23-.65.45-1.36.67-2,.28-.91.58-1.85.91-2.68l0,0a39.71,39.71,0,0,0,4.43-5.37l.61-.86-.4,1a128.33,128.33,0,0,1-6,13.07,49.06,49.06,0,0,1-7.28,10.27,23,23,0,0,1-10.63,5.65Zm.52-1a5.64,5.64,0,0,1-.14.63,22.82,22.82,0,0,0,10.31-5.54,48.8,48.8,0,0,0,7.23-10.22,122.13,122.13,0,0,0,5.62-12.1,38,38,0,0,1-3.84,4.55c-.32.82-.61,1.74-.89,2.64-.21.68-.43,1.39-.67,2-.14.37-.29.77-.46,1.14C149.8,159.6,143.29,169.74,135.22,170.56ZM135,170v-.11a3.81,3.81,0,0,0-3.33-3h0a16.81,16.81,0,0,0-7.26-2,16.81,16.81,0,0,0-7.26,2h0a3.82,3.82,0,0,0-3.33,3V170h-.11c-3-.17-6.42-2.83-8.47-4.42l0,0a41,41,0,0,1-9.83-16.73l-.14-.44.34.32c1.11,1,2.39,2.08,3.62,3.07.72.58,1.4,1.13,2.05,1.69l0,0,.16.25a3.49,3.49,0,0,0,.88,1.08l0,0c.33.4,1,.36,2.11-.15,1.44-1,.76-3,.56-3.34-.44-.67-1.26-.93-2.53-.8h0l-.13,0-.08.11a4.53,4.53,0,0,0-.93,2.21l0,.2-.16-.12c-.62-.47-1.23-1-1.77-1.49l-.71-.62A44.16,44.16,0,0,1,91.15,143c-.26-.31-.57-.71-1-1.2l-.12-.16-.78-1,0,0c-.58-1.38-1.23-2.85-1.85-4.27-.41-.93-.81-1.84-1.19-2.71-.47-1.05-1.06-2.21-1.62-3.32-.37-.72-.74-1.47-1.08-2.17l-.35-.67c-1.09-2.11-1.72-3.33-4.66-3.17h-.2l.08-.18.54-1.14c1.39-2.93,2.39-5,1.7-7.68l-.19-.73.4.63a36.66,36.66,0,0,1,3.16,6l3.31,8.34c.9,2,1.95,4.19,3,6.24,3.87,7.32,8.87,14.71,11.31,14.71a1,1,0,0,0,.3,0c-4.08-1.5-10.49-12.29-11.83-22.09a24.84,24.84,0,0,1-.23-2.75v-.19l.39.17a10,10,0,0,0,4.51,1c-3.26-2.72-3.81-4.81-4.22-6.35a7.09,7.09,0,0,0-.45-1.36c-.51-1-1.55-1.73-5.19-2.14h-.05l0,0a2,2,0,0,1-.42-1.93,2.58,2.58,0,0,0-.25-2,4.53,4.53,0,0,1-1,2,1.17,1.17,0,0,1-.59.13,4.19,4.19,0,0,1-2.48-1.09l0,0v0a14.17,14.17,0,0,0-.94-1.73C70.7,103.4,64.32,89.4,62.9,76.28A63.92,63.92,0,0,1,66.62,46.8v0l6.62-5.42L62.09,45.82l10.42-7.75,9.71-8.87L67.37,35.53l12.53-9.6,2.94,2.74.58-.25-.52.47a51.7,51.7,0,0,0-8.72,11.82l.43-.17L74,41c-4.56,9-7.17,19.16-7.17,28a59.58,59.58,0,0,0,8.36,30A57.89,57.89,0,0,0,124.38,127a59.3,59.3,0,0,0,28.29-7.59A58,58,0,0,0,173.55,99a59.63,59.63,0,0,0,8.37-30c0-8.82-2.61-19-7.17-28l-.58-.48.43.17a52,52,0,0,0-8.72-11.82l-.52-.47.58.25,2.95-2.74,12.53,9.6L166.54,29.2l9.72,8.88,10.41,7.75-11.15-4.48,6.62,5.42v0a64,64,0,0,1,3.72,29.48c-1.41,13.12-7.8,27.12-16.28,35.67a13.83,13.83,0,0,0-.94,1.73v0l0,0a4.22,4.22,0,0,1-2.48,1.09,1.2,1.2,0,0,1-.58-.12,4.52,4.52,0,0,1-1-2h0a2.57,2.57,0,0,0-.25,2,2,2,0,0,1-.42,1.93l0,0h-.05c-4.87.55-5.14,1.6-5.64,3.5-.4,1.54-1,3.64-4.21,6.35a10.17,10.17,0,0,0,4.74-1.12l.17-.08v.19c-.12,5.39-2.47,12.6-6,18.36-2.14,3.52-4.33,5.85-6.07,6.47,1.13.35,3.24-1.53,5.87-5.21a95.24,95.24,0,0,0,8.76-15.71l3.31-8.33a37,37,0,0,1,3.16-6l.41-.63-.19.73c-.69,2.63.31,4.73,1.69,7.65l.55,1.17.08.18h-.2c-2.93-.15-3.57,1.07-4.65,3.18l-.35.67c-.32.67-.69,1.38-1,2.08-.58,1.15-1.18,2.33-1.66,3.41l-1.09,2.48c-.66,1.49-1.34,3-1.95,4.49l0,0-.71.91c-.39.51-.8,1-1.15,1.47a34.52,34.52,0,0,1-4.79,5.43c-.86.82-1.76,1.61-2.59,2.35l-.75.65c-.53.47-1.13,1-1.73,1.45l-.16.12,0-.2a4.58,4.58,0,0,0-.93-2.21l-.08-.11-.13,0h0c-1.27-.13-2.09.13-2.54.8-.19.34-.87,2.33.59,3.35,1.05.49,1.76.54,2.09.14l0,0a3.47,3.47,0,0,0,.88-1.08l.16-.25,0,0c.66-.56,1.35-1.12,2.08-1.7,1-.81,2-1.64,3-2.49l.61-.57.34-.33-.15.46c-.23.7-.43,1.28-.62,1.81a40,40,0,0,1-9.2,14.91l-.05,0c-2,1.59-5.46,4.25-8.46,4.41ZM95.67,149.14a40.59,40.59,0,0,0,9.61,16.19l0,0c2,1.55,5.32,4.14,8.23,4.36a4.1,4.1,0,0,1,3.5-3,17,17,0,0,1,7.34-2h0a17,17,0,0,1,7.34,2,4,4,0,0,1,3.5,3c2.9-.22,6.23-2.8,8.22-4.36l0,0a39.78,39.78,0,0,0,9.13-14.82c.15-.41.3-.85.47-1.35l-.28.25c-.95.85-2,1.69-3,2.49-.72.58-1.41,1.13-2.06,1.69l-.14.23a3.69,3.69,0,0,1-.94,1.14c-.41.48-1.18.46-2.38-.1-1.5-1-1-3.06-.67-3.68a2.38,2.38,0,0,1,2.14-1,6,6,0,0,1,.6,0c1.73-.42,4-2.77,6.26-6.47,3.45-5.66,5.77-12.72,5.94-18.05a10.35,10.35,0,0,1-5,1.07h-.34l.26-.21c3.44-2.77,4-4.89,4.39-6.44.51-1.93.81-3.1,5.79-3.67a1.7,1.7,0,0,0,.35-1.69,2.93,2.93,0,0,1,.4-2.45l.13-.24.19.53a4.58,4.58,0,0,0,.93,1.88,1.11,1.11,0,0,0,.45.08,4,4,0,0,0,2.31-1,14.11,14.11,0,0,1,.95-1.75l0,0c8.45-8.52,14.81-22.46,16.22-35.54a63.79,63.79,0,0,0-3.69-29.34l-6.74-5.52c4.43,8.88,7,18.91,7,27.62a59.86,59.86,0,0,1-8.4,30.12,58.22,58.22,0,0,1-21,20.44,59.54,59.54,0,0,1-28.4,7.62A58.14,58.14,0,0,1,75,99.13,59.83,59.83,0,0,1,66.61,69c0-8.72,2.53-18.75,7-27.62l-6.74,5.52a63.67,63.67,0,0,0-3.69,29.34c1.41,13.08,7.78,27,16.22,35.54l0,0a14.62,14.62,0,0,1,1,1.75c1.84,1.42,2.77.94,2.77.94a4.65,4.65,0,0,0,.92-1.89l.18-.51.13.24a2.93,2.93,0,0,1,.4,2.45,1.7,1.7,0,0,0,.35,1.69c3.71.42,4.79,1.18,5.33,2.27a7.3,7.3,0,0,1,.47,1.4c.41,1.55,1,3.67,4.4,6.44l.26.21h-.34a10.33,10.33,0,0,1-4.94-1l-.05,0a25,25,0,0,0,.22,2.54c1.33,9.79,8.09,21,12,22a5.91,5.91,0,0,1,.6,0,2.37,2.37,0,0,1,2.13.94c.35.62.84,2.64-.65,3.68a3.86,3.86,0,0,1-1.56.45,1,1,0,0,1-.84-.34,3.71,3.71,0,0,1-.93-1.14l-.14-.23c-.65-.55-1.32-1.09-2-1.67C97.85,151,96.7,150.08,95.67,149.14ZM147,150.67a4.75,4.75,0,0,1,.77,1.88c.54-.42,1.08-.9,1.56-1.32l.75-.65c.83-.73,1.72-1.53,2.58-2.34a34.33,34.33,0,0,0,4.76-5.4c.36-.43.76-1,1.15-1.47l.7-.9c.61-1.45,1.29-3,1.94-4.48l1.09-2.48c.49-1.09,1.09-2.28,1.67-3.42.35-.69.71-1.41,1-2.08l.35-.67c1-2,1.71-3.32,4.38-3.32h.3l-.47-1c-1.29-2.72-2.25-4.74-1.84-7.15a35.86,35.86,0,0,0-2.79,5.37l-3.31,8.34a95.53,95.53,0,0,1-8.79,15.76C151.05,147.8,148.6,150.75,147,150.67ZM89.5,140.45l.77,1,.12.16c.38.49.69.89,1,1.21a44,44,0,0,0,7.35,7.75l.71.62c.49.44,1,.92,1.6,1.35a4.68,4.68,0,0,1,.77-1.88h-.07c-2.71,0-7.9-8-11.52-14.84-1.09-2.06-2.14-4.23-3-6.26l-3.32-8.34A35.47,35.47,0,0,0,81,115.85c.4,2.42-.56,4.46-1.86,7.19l-.45,1c2.92-.09,3.61,1.24,4.68,3.31l.35.67c.34.7.71,1.45,1.08,2.17.57,1.12,1.15,2.28,1.63,3.34.38.87.78,1.78,1.19,2.71C88.28,137.61,88.92,139.08,89.5,140.45ZM80.72,30.89l-8.06,7.36-8.94,6.66,10.13-4.06A50.65,50.65,0,0,1,80.72,30.89Zm94.2,10L185,44.91l-8.93-6.65L168,30.89A50.88,50.88,0,0,1,174.92,40.85Zm-8.76-12.08,13.58,5.79-10.86-8.32ZM79.89,26.24,69,34.56,82.6,28.77Zm42,143,0-.1a4.27,4.27,0,0,0-.54-.93l-.1-.13.16-.06a10.2,10.2,0,0,1,6,0l.16.06-.1.13a4.24,4.24,0,0,0-.55.93l0,.1-.11,0a7.39,7.39,0,0,0-2.38-.44,7.47,7.47,0,0,0-2.38.44Zm-.3-1.05a4.63,4.63,0,0,1,.43.75,6.76,6.76,0,0,1,4.7,0,4.68,4.68,0,0,1,.44-.75,10.1,10.1,0,0,0-5.57,0Zm-.78-.44-.05,0a3.83,3.83,0,0,0-1.42-.71l-.43-.09.42-.15a15.23,15.23,0,0,1,10.09,0l.42.15-.43.09a3.88,3.88,0,0,0-1.42.71l-.05,0-.06,0-.77-.27-.18-.06a20.87,20.87,0,0,0-2.55-.22,20.47,20.47,0,0,0-2.57.23l-.07,0c-.31.1-.6.2-.86.3Zm3.56-.82a20.8,20.8,0,0,1,2.6.23l.2.06.73.25a4.85,4.85,0,0,1,1.07-.61,15,15,0,0,0-9.21,0,4.79,4.79,0,0,1,1.07.61l.81-.28.09,0A20.47,20.47,0,0,1,124.38,166.93Zm0-41.43a55.9,55.9,0,0,1-46.56-24.89c-7.08-11-10.44-23.7-9.47-35.75a57,57,0,0,1,16.54-36L81,25.16l-3.68-4,.07-.08c3.83-4.2,9.7-7.93,12.85-9.79.78-.46,1.6-.93,2.59-1.47,2.38-1.29,5-2.43,7.32-3.41A71.14,71.14,0,0,1,124.38,2h0A71.13,71.13,0,0,1,148.6,6.41c1.34.56,2.76,1.17,4.17,1.84,1.11.51,2.17,1,3.16,1.57,3.08,1.68,10.76,6.13,15.44,11.26l.07.08-3.67,4-3.9,3.66a57.07,57.07,0,0,1,16.54,36c1,12.05-2.4,24.75-9.47,35.74a55.88,55.88,0,0,1-46.56,24.9ZM77.63,21.16,81.16,25l4.08,3.82-.09.09a56.76,56.76,0,0,0-16.56,36c-1,12,2.38,24.64,9.43,35.6a55.72,55.72,0,0,0,92.72,0c7-11,10.39-23.59,9.43-35.59a56.82,56.82,0,0,0-16.56-36l-.09-.09L167.6,25l3.52-3.82c-4.66-5.07-12.24-9.46-15.3-11.13-1-.53-2-1.05-3.14-1.57-1.41-.66-2.83-1.27-4.16-1.83a68.17,68.17,0,0,0-48.28,0c-2.29,1-4.93,2.11-7.3,3.39-1,.54-1.81,1-2.58,1.46A57.56,57.56,0,0,0,77.63,21.16Z"/><path class="c" d="M144.26,7.44A1.3,1.3,0,1,1,143,8.74a1.29,1.29,0,0,1,1.28-1.3m-52,12.47,1.42,2.32,1.55-1A3.48,3.48,0,0,0,96.59,20a1.21,1.21,0,0,0-.16-1.17,1.12,1.12,0,0,0-.93-.64,3.54,3.54,0,0,0-1.64.69Zm2,8.93L88.7,19.68l4.66-3a11,11,0,0,1,1.65-.9,3.72,3.72,0,0,1,1.19-.28,2.65,2.65,0,0,1,1.54.4,4.34,4.34,0,0,1,1.85,3,2.68,2.68,0,0,1-.36,1.58,4,4,0,0,1-.83,1,15.16,15.16,0,0,1-1.88,1.34l-.2.13-1.52,1,2,3.27Zm14.18-13.17a3.55,3.55,0,0,0,1.36,2.3,3.23,3.23,0,0,0,2.57.27,3.39,3.39,0,0,0,2.24-1.39,3.44,3.44,0,0,0,.25-2.63,3.88,3.88,0,0,0-1.44-2.47,3.18,3.18,0,0,0-2.64-.35,3,3,0,0,0-2.11,1.47A3.88,3.88,0,0,0,108.51,15.67Zm4.25,4.64a6.59,6.59,0,0,1-4.8-.37,5.28,5.28,0,0,1-2.49-3.69,5.13,5.13,0,0,1,.76-4.37,7.18,7.18,0,0,1,4.33-2.52,6.73,6.73,0,0,1,4.88.36A5.29,5.29,0,0,1,118,13.42a5.1,5.1,0,0,1-.73,4.39A7.5,7.5,0,0,1,112.76,20.31Zm11.77-1.69.74-10.78,3,.21-.58,8.43,5.56.4-.16,2.35Zm14.27,2.1,3.28-10.27,2.89,1L141.7,21.68Zm10.31.7L151.67,23l-.06.09a1.38,1.38,0,0,0-.17,1.28,2.79,2.79,0,0,0,1.16,1.19,2.93,2.93,0,0,0,1.37.54.9.9,0,0,0,.84-.46q.43-.7-1.23-2.22l-.52-.48a7.39,7.39,0,0,1-2-2.62,2.45,2.45,0,0,1,.29-2.17,2.81,2.81,0,0,1,2.4-1.46A6.54,6.54,0,0,1,157.36,18a6.11,6.11,0,0,1,2.49,2.51,3.07,3.07,0,0,1-.27,2.74l-2.43-1.54,0,0a1,1,0,0,0,.07-1,2.59,2.59,0,0,0-1-1,2.89,2.89,0,0,0-1.29-.51.8.8,0,0,0-.8.38q-.4.65,1.2,2.14l.43.41.09.08a7.38,7.38,0,0,1,2,2.63A2.57,2.57,0,0,1,158,26a3.16,3.16,0,0,1-.44,1.17,2.86,2.86,0,0,1-2.47,1.47,6.74,6.74,0,0,1-3.69-1.28,6.59,6.59,0,0,1-2.71-2.77,3.09,3.09,0,0,1,.34-2.94Z"/><polyline class="b" points="109.7 38.93 110.04 38.81 110.04 38.71 110.54 38.52 110.54 38.38 111.29 38.11 111.29 37.88 112.4 37.48 111.29 37.08 111.29 36.85 110.54 36.58 110.54 36.43 110.04 36.24 110.04 36.14 109.7 36.02 109.85 35.7 109.79 35.62 110.02 35.14 109.91 35.03 110.25 34.31 110.09 34.15 110.59 33.06 109.52 33.58 109.37 33.42 108.65 33.76 108.54 33.66 108.06 33.89 107.99 33.82 107.67 33.96 107.55 33.63 107.45 33.63 107.27 33.12 107.12 33.12 106.85 32.37 106.62 32.37 106.23 31.24 105.83 32.37 105.61 32.37 105.34 33.12 105.19 33.12 105.01 33.63 104.91 33.63 104.79 33.96 104.47 33.82 104.39 33.89 103.92 33.66 103.81 33.76 103.09 33.42 102.94 33.58 101.86 33.06 102.37 34.15 102.21 34.31 102.55 35.03 102.44 35.14 102.67 35.62 102.61 35.7 102.75 36.02 102.42 36.14 102.42 36.24 101.92 36.43 101.92 36.58 101.17 36.85 101.17 37.08 100.06 37.48 101.17 37.88 101.17 38.11 101.92 38.38 101.92 38.52 102.42 38.71 102.42 38.81 102.75 38.93 102.61 39.26 102.67 39.33 102.44 39.81 102.55 39.92 102.21 40.65 102.37 40.8 101.86 41.89 102.94 41.38 103.09 41.54 103.81 41.2 103.92 41.3 104.39 41.07 104.47 41.14 104.79 40.99 104.91 41.33 105.01 41.33 105.19 41.83 105.34 41.83 105.61 42.59 105.83 42.59 106.23 43.72 106.62 42.59 106.85 42.59 107.12 41.83 107.27 41.83 107.45 41.33 107.55 41.33 107.67 40.99 107.99 41.14 108.06 41.07 108.54 41.3 108.65 41.2 109.37 41.54 109.52 41.38 110.59 41.89 110.09 40.8 110.25 40.65 109.91 39.92 110.02 39.81 109.79 39.33 109.85 39.26 109.7 38.93"/><path class="b" d="M106.21,40.05a2.55,2.55,0,0,1-2.53-2.56,2.58,2.58,0,0,1,1.55-2.38,1,1,0,0,1,1-.92,1,1,0,0,1,1,.92,2.57,2.57,0,0,1-1,4.94m0-5.62a.76.76,0,0,0-.75.77v.08l-.08,0a2.34,2.34,0,0,0-1.47,2.19,2.31,2.31,0,1,0,4.63,0,2.34,2.34,0,0,0-1.49-2.19l-.07,0V35.2A.78.78,0,0,0,106.21,34.43Z"/><line class="a" x1="101.86" y1="33.06" x2="110.6" y2="41.89"/><polyline class="a" points="110.58 41.9 101.85 33.08 101.88 33.05 110.61 41.88 110.58 41.9"/><rect class="a" x="100.06" y="37.46" width="12.35" height=".04"/><polyline class="a" points="101.88 41.9 101.85 41.88 110.58 33.05 110.61 33.08 101.88 41.9"/><rect class="a" x="106.21" y="31.24" width=".04" height="12.48"/><polyline class="a" points="109.7 38.95 102.75 36.04 102.76 36.01 109.71 38.91 109.7 38.95"/><polyline class="a" points="102.76 38.95 102.75 38.91 109.7 36.01 109.71 36.04 102.76 38.95"/><polyline class="a" points="107.65 41 104.77 33.97 104.81 33.96 107.69 40.98 107.65 41"/><polyline class="a" points="104.81 41 104.77 40.98 107.65 33.96 107.69 33.97 104.81 41"/><path class="d" d="M107.1,35.2a2.42,2.42,0,1,1-1.75,0,.88.88,0,0,1,.87-.89.89.89,0,0,1,.88.89"/><path class="b" d="M107.07,36.21a1.2,1.2,0,0,1,.37.87,1.24,1.24,0,0,1-1.22,1.24A1.22,1.22,0,0,1,105,37.08a1.25,1.25,0,0,1,.35-.87,1.57,1.57,0,0,0-.65,1.27,1.52,1.52,0,1,0,2.36-1.27m-.85,0-.15-.45h-.47l.39-.27-.16-.45.39.27.37-.27-.14.45.38.27h-.47Z"/><polyline class="b" points="121.22 34.01 121.55 33.89 121.55 33.79 122.05 33.61 122.05 33.46 122.8 33.19 122.8 32.96 123.91 32.56 122.8 32.16 122.8 31.93 122.05 31.66 122.05 31.51 121.55 31.32 121.55 31.22 121.22 31.1 121.36 30.78 121.3 30.7 121.53 30.22 121.42 30.11 121.76 29.39 121.6 29.23 122.11 28.15 121.03 28.66 120.88 28.5 120.16 28.84 120.05 28.74 119.58 28.97 119.5 28.9 119.18 29.04 119.06 28.71 118.96 28.71 118.78 28.2 118.63 28.2 118.36 27.45 118.14 27.45 117.74 26.32 117.35 27.45 117.12 27.45 116.85 28.2 116.7 28.2 116.52 28.71 116.42 28.71 116.3 29.04 115.98 28.9 115.91 28.97 115.43 28.74 115.32 28.84 114.6 28.5 114.45 28.66 113.38 28.15 113.88 29.23 113.72 29.39 114.06 30.11 113.95 30.22 114.18 30.7 114.12 30.78 114.26 31.1 113.93 31.22 113.93 31.32 113.43 31.51 113.43 31.66 112.68 31.93 112.68 32.16 111.57 32.56 112.68 32.96 112.68 33.19 113.43 33.46 113.43 33.61 113.93 33.79 113.93 33.89 114.26 34.01 114.12 34.34 114.18 34.41 113.95 34.89 114.06 35.01 113.72 35.73 113.88 35.89 113.38 36.97 114.45 36.46 114.6 36.62 115.32 36.28 115.43 36.39 115.91 36.16 115.98 36.22 116.3 36.07 116.42 36.41 116.52 36.41 116.7 36.91 116.85 36.91 117.12 37.67 117.35 37.67 117.74 38.8 118.14 37.67 118.36 37.67 118.63 36.91 118.78 36.91 118.96 36.41 119.06 36.41 119.18 36.07 119.5 36.22 119.58 36.16 120.05 36.39 120.16 36.28 120.88 36.62 121.03 36.46 122.11 36.97 121.6 35.89 121.76 35.73 121.42 35.01 121.53 34.89 121.3 34.41 121.36 34.34 121.22 34.01"/><path class="b" d="M117.73,35.13a2.55,2.55,0,0,1-2.53-2.56,2.58,2.58,0,0,1,1.55-2.38,1,1,0,0,1,1-.92,1,1,0,0,1,1,.92,2.57,2.57,0,0,1-1,4.94m0-5.62a.76.76,0,0,0-.75.77v.08l-.08,0a2.34,2.34,0,0,0-1.47,2.19,2.31,2.31,0,1,0,4.63,0,2.34,2.34,0,0,0-1.49-2.19l-.07,0v-.08A.78.78,0,0,0,117.73,29.51Z"/><line class="a" x1="113.37" y1="28.15" x2="122.11" y2="36.97"/><polyline class="a" points="122.09 36.98 113.36 28.16 113.39 28.13 122.12 36.96 122.09 36.98"/><rect class="a" x="111.57" y="32.54" width="12.35" height=".04"/><polyline class="a" points="113.39 36.98 113.36 36.96 122.09 28.13 122.12 28.16 113.39 36.98"/><rect class="a" x="117.72" y="26.32" width=".04" height="12.48"/><polyline class="a" points="121.21 34.03 114.26 31.12 114.27 31.09 121.22 34 121.21 34.03"/><polyline class="a" points="114.27 34.03 114.26 34 121.21 31.09 121.22 31.12 114.27 34.03"/><polyline class="a" points="119.17 36.08 116.28 29.05 116.32 29.04 119.2 36.06 119.17 36.08"/><polyline class="a" points="116.32 36.08 116.28 36.06 119.17 29.04 119.2 29.05 116.32 36.08"/><path class="d" d="M118.61,30.28a2.42,2.42,0,1,1-1.75,0,.88.88,0,0,1,.87-.89.89.89,0,0,1,.88.89"/><path class="b" d="M118.58,31.29a1.2,1.2,0,0,1,.37.87,1.24,1.24,0,0,1-1.22,1.24,1.22,1.22,0,0,1-1.21-1.24,1.25,1.25,0,0,1,.35-.87,1.58,1.58,0,0,0-.65,1.27,1.52,1.52,0,1,0,2.36-1.27m-.85,0-.15-.45h-.47l.39-.27-.16-.45.39.27.37-.27-.14.45.38.27h-.47Z"/><polyline class="b" points="139.05 38.95 138.72 38.83 138.72 38.73 138.22 38.54 138.22 38.39 137.47 38.12 137.47 37.89 136.36 37.49 137.47 37.1 137.47 36.86 138.22 36.6 138.22 36.45 138.72 36.26 138.72 36.16 139.05 36.04 138.91 35.71 138.97 35.64 138.74 35.16 138.85 35.05 138.51 34.32 138.67 34.17 138.16 33.08 139.24 33.6 139.39 33.44 140.11 33.78 140.22 33.67 140.7 33.91 140.77 33.83 141.09 33.98 141.21 33.65 141.31 33.65 141.49 33.14 141.64 33.14 141.91 32.39 142.14 32.39 142.53 31.26 142.92 32.39 143.15 32.39 143.42 33.14 143.57 33.14 143.75 33.65 143.85 33.65 143.97 33.98 144.29 33.83 144.37 33.91 144.84 33.67 144.95 33.78 145.67 33.44 145.82 33.6 146.9 33.08 146.39 34.17 146.55 34.32 146.21 35.05 146.32 35.16 146.09 35.64 146.15 35.71 146.01 36.04 146.34 36.16 146.34 36.26 146.84 36.45 146.84 36.6 147.59 36.86 147.59 37.1 148.7 37.49 147.59 37.89 147.59 38.12 146.84 38.39 146.84 38.54 146.34 38.73 146.34 38.83 146.01 38.95 146.15 39.27 146.09 39.35 146.32 39.83 146.21 39.94 146.55 40.66 146.39 40.82 146.9 41.91 145.82 41.4 145.67 41.55 144.95 41.21 144.84 41.32 144.37 41.09 144.29 41.16 143.97 41.01 143.85 41.35 143.75 41.35 143.57 41.85 143.42 41.85 143.15 42.61 142.92 42.61 142.53 43.73 142.14 42.61 141.91 42.61 141.64 41.85 141.49 41.85 141.31 41.35 141.21 41.35 141.09 41.01 140.77 41.16 140.7 41.09 140.22 41.32 140.11 41.21 139.39 41.55 139.24 41.4 138.16 41.91 138.67 40.82 138.51 40.66 138.85 39.94 138.74 39.83 138.97 39.35 138.91 39.27 139.05 38.95"/><path class="b" d="M140,37.51a2.58,2.58,0,0,1,1.57-2.38,1,1,0,0,1,1-.92,1,1,0,0,1,1,.92,2.58,2.58,0,0,1,1.55,2.38,2.55,2.55,0,1,1-5.09,0m1.8-2.29v.08l-.07,0a2.33,2.33,0,0,0,.84,4.51,2.31,2.31,0,0,0,2.3-2.32,2.34,2.34,0,0,0-1.47-2.19l-.07,0v-.08a.76.76,0,0,0-.75-.77A.78.78,0,0,0,141.78,35.22Z"/><line class="a" x1="146.9" y1="33.08" x2="138.16" y2="41.91"/><polyline class="a" points="138.18 41.92 146.91 33.09 146.88 33.07 138.15 41.9 138.18 41.92"/><rect class="a" x="136.36" y="37.48" width="12.35" height=".04"/><polyline class="a" points="146.88 41.92 146.91 41.9 138.18 33.07 138.15 33.09 146.88 41.92"/><rect class="a" x="142.51" y="31.26" width=".04" height="12.48"/><polyline class="a" points="139.06 38.97 146.01 36.05 146 36.02 139.05 38.93 139.06 38.97"/><polyline class="a" points="146 38.97 146.01 38.93 139.06 36.02 139.05 36.05 146 38.97"/><polyline class="a" points="141.11 41.01 143.99 33.99 143.95 33.97 141.07 41 141.11 41.01"/><polyline class="a" points="143.95 41.01 143.99 41 141.11 33.97 141.07 33.99 143.95 41.01"/><path class="d" d="M141.66,35.21a2.42,2.42,0,1,0,1.75,0,.88.88,0,0,0-.87-.89.89.89,0,0,0-.88.89"/><path class="b" d="M141.69,36.23A1.52,1.52,0,1,0,144,37.5a1.57,1.57,0,0,0-.65-1.27,1.25,1.25,0,0,1,.35.87,1.22,1.22,0,0,1-1.21,1.24,1.24,1.24,0,0,1-1.22-1.24,1.2,1.2,0,0,1,.37-.87m.71-.47h-.47l.38-.27-.14-.45.37.27.39-.27-.16.45.39.27h-.47l-.15.45Z"/><polyline class="b" points="127.54 34.01 127.21 33.89 127.21 33.79 126.71 33.61 126.71 33.46 125.96 33.19 125.96 32.96 124.85 32.56 125.96 32.16 125.96 31.93 126.71 31.66 126.71 31.51 127.21 31.32 127.21 31.22 127.54 31.1 127.39 30.78 127.46 30.7 127.23 30.22 127.34 30.11 127 29.39 127.16 29.23 126.65 28.15 127.73 28.66 127.88 28.5 128.6 28.84 128.71 28.74 129.18 28.97 129.26 28.9 129.58 29.04 129.7 28.71 129.8 28.71 129.98 28.2 130.13 28.2 130.4 27.45 130.62 27.45 131.02 26.32 131.41 27.45 131.64 27.45 131.91 28.2 132.06 28.2 132.24 28.71 132.34 28.71 132.46 29.04 132.78 28.9 132.85 28.97 133.33 28.74 133.44 28.84 134.16 28.5 134.31 28.66 135.38 28.15 134.88 29.23 135.04 29.39 134.7 30.11 134.81 30.22 134.58 30.7 134.64 30.78 134.5 31.1 134.83 31.22 134.83 31.32 135.33 31.51 135.33 31.66 136.08 31.93 136.08 32.16 137.19 32.56 136.08 32.96 136.08 33.19 135.33 33.46 135.33 33.61 134.83 33.79 134.83 33.89 134.5 34.01 134.64 34.34 134.58 34.41 134.81 34.89 134.7 35.01 135.04 35.73 134.88 35.88 135.38 36.97 134.31 36.46 134.16 36.62 133.44 36.28 133.33 36.39 132.85 36.16 132.78 36.22 132.46 36.07 132.34 36.41 132.24 36.41 132.06 36.91 131.91 36.91 131.64 37.67 131.41 37.67 131.02 38.8 130.62 37.67 130.4 37.67 130.13 36.91 129.98 36.91 129.8 36.41 129.7 36.41 129.58 36.07 129.26 36.22 129.18 36.16 128.71 36.39 128.6 36.28 127.88 36.62 127.73 36.46 126.65 36.97 127.16 35.88 127 35.73 127.34 35.01 127.23 34.89 127.46 34.41 127.39 34.34 127.54 34.01"/><path class="b" d="M128.47,32.57A2.58,2.58,0,0,1,130,30.2a1,1,0,0,1,1-.92,1,1,0,0,1,1,.92,2.58,2.58,0,0,1,1.55,2.38,2.55,2.55,0,1,1-5.09,0m1.8-2.29v.08l-.07,0A2.33,2.33,0,0,0,131,34.9a2.31,2.31,0,0,0,2.3-2.32,2.34,2.34,0,0,0-1.47-2.19l-.07,0v-.08a.76.76,0,0,0-.75-.77A.78.78,0,0,0,130.27,30.28Z"/><line class="a" x1="135.38" y1="28.15" x2="126.65" y2="36.97"/><polyline class="a" points="126.67 36.98 135.4 28.16 135.37 28.13 126.64 36.96 126.67 36.98"/><rect class="a" x="124.85" y="32.54" width="12.35" height=".04"/><polyline class="a" points="135.37 36.98 135.4 36.96 126.67 28.13 126.64 28.16 135.37 36.98"/><rect class="a" x="131" y="26.32" width=".04" height="12.48"/><polyline class="a" points="127.55 34.03 134.5 31.12 134.49 31.09 127.54 34 127.55 34.03"/><polyline class="a" points="134.49 34.03 134.5 34 127.55 31.09 127.54 31.12 134.49 34.03"/><polyline class="a" points="129.59 36.08 132.47 29.05 132.44 29.04 129.56 36.06 129.59 36.08"/><polyline class="a" points="132.44 36.08 132.47 36.06 129.59 29.04 129.56 29.05 132.44 36.08"/><path class="d" d="M130.15,30.28a2.42,2.42,0,1,0,1.75,0,.88.88,0,0,0-.87-.89.89.89,0,0,0-.88.89"/><path class="b" d="M130.18,31.29a1.52,1.52,0,1,0,2.36,1.27,1.57,1.57,0,0,0-.65-1.27,1.25,1.25,0,0,1,.35.87A1.22,1.22,0,0,1,131,33.41a1.24,1.24,0,0,1-1.22-1.24,1.2,1.2,0,0,1,.37-.87m.71-.47h-.47l.38-.27-.14-.45.37.27.39-.27-.16.45.39.27h-.47l-.15.45Z"/><polyline class="b" points="83.83 42.98 85.8 40.16 84.6 39.3 83.06 41.52 81.96 40.73 83.5 38.52 82.23 37.6 80.27 40.42 79.12 39.59 82.06 35.37 87.89 39.55 84.94 43.77 83.83 42.98"/><polyline class="b" points="74.42 49.26 80.49 49.62 75.02 47.59 75.5 46.25 82.21 48.74 81.31 51.22 76.87 50.92 80.43 53.67 79.53 56.16 72.83 53.67 73.41 52.07 78.87 54.1 74.02 50.35 74.42 49.26"/><path class="b" d="M78,67.68l-7.12-.56L71,65.68l5-2.45h-.55l-4.26-.34.1-1.32,7.12.56L78.27,64l-4.39,2.13h.48l3.72.29L78,67.68"/><path class="b" d="M78.57,75.66l-7.08.95-.22-1.68L78.35,74l.22,1.68m.65-.95a.59.59,0,0,1,.12-.48.6.6,0,0,1,.84-.11.59.59,0,0,1,.24.42.69.69,0,0,1-.1.46.55.55,0,0,1-.42.25.56.56,0,0,1-.46-.13A.66.66,0,0,1,79.21,74.71Z"/><polyline class="b" points="81.54 86.8 76.9 86 74.06 86.99 73.52 85.39 76.36 84.4 79.55 80.89 80.17 82.75 78.06 84.95 81.05 85.36 81.54 86.8"/><polyline class="b" points="85.38 96.6 83.58 93.68 82.33 94.46 83.75 96.76 82.61 97.49 81.19 95.19 79.87 96.02 81.67 98.95 80.47 99.71 77.77 95.32 83.83 91.48 86.53 95.87 85.38 96.6"/><polyline class="b" points="93.35 103.63 92.35 104.64 91.1 103.36 87.04 107.46 85.84 106.24 89.91 102.14 88.66 100.86 89.66 99.85 93.35 103.63"/><path class="b" d="M108,116.29l-1.46,3.58-.71-.3a5.8,5.8,0,0,0,.1-.86,2.37,2.37,0,0,1-2.15.11,2.62,2.62,0,0,1-1.62-1.78,4.2,4.2,0,0,1,.27-2.72,4.31,4.31,0,0,1,1.82-2.25,2.69,2.69,0,0,1,2.48-.09,2.76,2.76,0,0,1,1.52,1.38,3,3,0,0,1,.14,2l-1.55-.42q.32-1.29-.64-1.69a1.1,1.1,0,0,0-1.18.18,3.66,3.66,0,0,0-1,1.51,3.18,3.18,0,0,0-.3,1.72,1.22,1.22,0,0,0,.77,1,1.2,1.2,0,0,0,.85,0,1.16,1.16,0,0,0,.69-.74l-1.24-.52.51-1.25,2.71,1.14"/><polyline class="b" points="117.78 116.65 114.45 115.98 114.16 117.44 116.79 117.96 116.52 119.3 113.9 118.77 113.6 120.33 116.93 121 116.66 122.4 111.66 121.39 113.05 114.29 118.05 115.29 117.78 116.65"/><path class="b" d="M127.11,115.61l.1,7.24-1.43,0L122.92,118c0,.12,0,.21,0,.24a2.84,2.84,0,0,1,0,.31l.06,4.34-1.3,0-.1-7.25,1.8,0,2.49,4.24q0-.32,0-.48l-.05-3.79,1.29,0"/><polyline class="b" points="136.47 115.55 133.13 116.22 133.42 117.68 136.04 117.15 136.3 118.49 133.68 119.02 133.98 120.57 137.32 119.9 137.59 121.3 132.59 122.31 131.2 115.2 136.2 114.2 136.47 115.55"/><polyline class="b" points="143.4 117.83 146.04 116.76 146.56 118.09 142.35 119.8 139.71 113.07 141.28 112.43 143.4 117.83"/><polyline class="b" points="158.79 110.19 153.65 106.89 157.46 111.36 156.4 112.29 151.73 106.8 153.7 105.08 157.44 107.53 155.65 103.37 157.62 101.64 162.29 107.12 161.01 108.24 157.21 103.77 159.66 109.43 158.79 110.19"/><path class="b" d="M160.08,97.37a.57.57,0,0,1-.42.25.59.59,0,0,1-.43-.12.62.62,0,0,1-.23-.4.59.59,0,0,1,.12-.47.67.67,0,0,1,.39-.26.54.54,0,0,1,.47.12.57.57,0,0,1,.24.42.66.66,0,0,1-.14.46m2.84-2.45,3.53,2.75a4,4,0,0,1,1.12,1.19,2,2,0,0,1,.13,1.26,3.79,3.79,0,0,1-.76,1.57,3.73,3.73,0,0,1-1.24,1.13,2,2,0,0,1-1.24.2,3.49,3.49,0,0,1-1.48-.77l-3.53-2.75,1.11-1.46,3.53,2.75a2.7,2.7,0,0,0,.73.45.78.78,0,0,0,.58,0,1.47,1.47,0,0,0,.56-.48,1.66,1.66,0,0,0,.34-.71.81.81,0,0,0-.09-.57,2.77,2.77,0,0,0-.63-.61L162,96.08Zm-1.78,1a.58.58,0,0,1-.42.25.6.6,0,0,1-.43-.12.62.62,0,0,1-.23-.4.6.6,0,0,1,.12-.47.65.65,0,0,1,.4-.25.55.55,0,0,1,.47.12.57.57,0,0,1,.24.42A.67.67,0,0,1,161.14,96Z"/><path class="b" d="M164.43,92.49l1-2a4.22,4.22,0,0,1,1.23-1.62,3.42,3.42,0,0,1,1.57-.52,3.59,3.59,0,0,1,2,.46,3.77,3.77,0,0,1,1.87,2,3.23,3.23,0,0,1-.22,2.73l-1.12,2.22-6.36-3.3m1.92-.88,4,2.07.31-.62a1.55,1.55,0,0,0,0-1.54,2.89,2.89,0,0,0-1.23-1.14,2.81,2.81,0,0,0-1.18-.33,1.65,1.65,0,0,0-1,.21,1.76,1.76,0,0,0-.61.71Z"/><path class="b" d="M167.85,82.58a.59.59,0,0,1-.3.38.59.59,0,0,1-.45,0,.61.61,0,0,1-.36-.29.59.59,0,0,1-.05-.49.68.68,0,0,1,.28-.38.54.54,0,0,1,.48-.06.56.56,0,0,1,.37.31.66.66,0,0,1,0,.48m.5-1.7a.58.58,0,0,1-.3.38.59.59,0,0,1-.45,0,.63.63,0,0,1-.41-.78.66.66,0,0,1,.28-.38.55.55,0,0,1,.48-.05.57.57,0,0,1,.37.31A.67.67,0,0,1,168.34,80.88Zm1.29-1.62,4.26,1.29a3.93,3.93,0,0,1,1.47.7,1.93,1.93,0,0,1,.57,1.13,3.83,3.83,0,0,1-.16,1.74,3.79,3.79,0,0,1-.76,1.51,2,2,0,0,1-1.09.64,3.47,3.47,0,0,1-1.66-.18L168,84.81l.52-1.77,4.26,1.29a2.68,2.68,0,0,0,.84.15.79.79,0,0,0,.52-.25,1.49,1.49,0,0,0,.36-.65,1.68,1.68,0,0,0,.07-.79.8.8,0,0,0-.29-.5,2.71,2.71,0,0,0-.8-.34l-4.26-1.29Z"/><path class="b" d="M174.65,75.21l2.81.3-.18,1.7-7.1-.76.33-3.17a4.07,4.07,0,0,1,.35-1.39,1.8,1.8,0,0,1,.83-.8,2.15,2.15,0,0,1,1.23-.22,1.91,1.91,0,0,1,1.7,1.45l3.28-1-.19,1.87-2.93.8-.13,1.21m-3-.32,1.81.19.11-1a2.74,2.74,0,0,0,0-.74.82.82,0,0,0-.27-.44.92.92,0,0,0-.54-.24.85.85,0,0,0-.55.12.75.75,0,0,0-.33.36,3.78,3.78,0,0,0-.14.79Z"/><polyline class="b" points="176.38 65.69 176.22 62.81 177.63 62.73 177.9 67.32 170.77 67.75 170.67 66.04 176.38 65.69"/><path class="b" d="M168.57,57.22a.59.59,0,0,1-.08.49.61.61,0,0,1-1.11-.22.67.67,0,0,1,.06-.47.61.61,0,0,1,.86-.2.66.66,0,0,1,.26.4M169,59a.61.61,0,0,1-.9.67.59.59,0,0,1-.28-.4.69.69,0,0,1,.06-.47.55.55,0,0,1,.39-.29.55.55,0,0,1,.47.08A.66.66,0,0,1,169,59Zm-.05-3.78,4.33-1a3.91,3.91,0,0,1,1.62-.12,1.9,1.9,0,0,1,1,.7,4.61,4.61,0,0,1,.78,3.29,2.08,2.08,0,0,1-.64,1.1,3.49,3.49,0,0,1-1.53.67l-4.33,1L169.78,59l4.33-1a2.69,2.69,0,0,0,.8-.29.81.81,0,0,0,.33-.48,1.5,1.5,0,0,0,0-.74,1.66,1.66,0,0,0-.33-.72.78.78,0,0,0-.49-.29,2.7,2.7,0,0,0-.87.1l-4.33,1Z"/><path class="b" d="M165.57,52.21l-.33-.76a.75.75,0,0,0,.3-1.06.74.74,0,0,0-1-.52l-.33-.76a1.59,1.59,0,0,1,2,1,1.78,1.78,0,0,1,.11,1.19,1.55,1.55,0,0,1-.83.94m3.28-6.28,3.5-1.54.3.71a5.63,5.63,0,0,0-.66.55,2.42,2.42,0,0,1,1.63,1.44,2.67,2.67,0,0,1-.05,2.43,4.1,4.1,0,0,1-2.06,1.77,4.2,4.2,0,0,1-2.84.34,2.74,2.74,0,0,1-1.85-1.68,2.82,2.82,0,0,1-.15-2.06,2.93,2.93,0,0,1,1.28-1.55l.82,1.4q-1.11.7-.7,1.67a1.12,1.12,0,0,0,1,.71,3.56,3.56,0,0,0,1.75-.39,3.1,3.1,0,0,0,1.39-1,1.3,1.3,0,0,0-.48-1.86,1.13,1.13,0,0,0-1,0l.53,1.25-1.22.54Z"/><path class="b" d="M161.71,42.06a.6.6,0,0,1,.1.48.61.61,0,0,1-.25.38.59.59,0,0,1-.45.09.59.59,0,0,1-.4-.27.66.66,0,0,1-.11-.46.57.57,0,0,1,.26-.41.56.56,0,0,1,.47-.09.65.65,0,0,1,.39.28m-.41-2L165,37.5a4,4,0,0,1,1.47-.7,1.87,1.87,0,0,1,1.22.28,3.74,3.74,0,0,1,1.22,1.23,3.81,3.81,0,0,1,.66,1.55,2.09,2.09,0,0,1-.21,1.26,3.53,3.53,0,0,1-1.19,1.18l-3.69,2.52-1-1.53,3.69-2.52a2.71,2.71,0,0,0,.65-.56.82.82,0,0,0,.14-.57,1.5,1.5,0,0,0-.27-.69,1.63,1.63,0,0,0-.56-.56.77.77,0,0,0-.56-.1,2.71,2.71,0,0,0-.77.41l-3.69,2.52Zm1.38,3.52a.59.59,0,0,1,.1.48.61.61,0,0,1-.25.38.6.6,0,0,1-.45.1.58.58,0,0,1-.4-.27.69.69,0,0,1-.11-.46.62.62,0,0,1,.73-.51A.65.65,0,0,1,162.68,43.53Z"/><path class="e" d="M133.21,105.14l.69-.21.69-.23a4.07,4.07,0,0,0,2.42-2.15,3.62,3.62,0,0,0,0-3l-.53-1.18-.56.26-.57.25a4.3,4.3,0,0,0-2.11,2,4.13,4.13,0,0,0-.35,3l.35,1.25"/><path class="e" d="M138.86,107a5.9,5.9,0,0,0-3.48.13l-.73.24-.74.23.34,1.25a3.27,3.27,0,0,0,2.16,2.2,5.31,5.31,0,0,0,3.79-.23l.8-.36.79-.37-.53-1.18a3.62,3.62,0,0,0-2.4-1.91"/><path class="e" d="M140.92,95.77l-.52.36-.52.34a4.34,4.34,0,0,0-1.78,2.35,4.17,4.17,0,0,0,.14,3l.54,1.17.64-.32.64-.34a4.12,4.12,0,0,0,2-2.53,3.62,3.62,0,0,0-.49-3l-.71-1.07"/><path class="e" d="M144.66,103.91a5.91,5.91,0,0,0-3.42.71l-.69.36-.69.35.54,1.17a3.21,3.21,0,0,0,2.48,1.81,5.35,5.35,0,0,0,3.71-.86l.73-.49.72-.5-.71-1.07a3.6,3.6,0,0,0-2.67-1.48"/><path class="e" d="M144.91,92.44l-.46.44-.46.42a4.44,4.44,0,0,0-1.38,2.62,4.16,4.16,0,0,0,.61,2.94l.72,1.06.59-.43.58-.44a4.18,4.18,0,0,0,1.62-2.84,3.57,3.57,0,0,0-.94-2.84l-.87-.94"/><path class="e" d="M149.87,99.86a5.93,5.93,0,0,0-3.26,1.27l-.62.47-.63.46.72,1.06a3.18,3.18,0,0,0,2.73,1.37,5.35,5.35,0,0,0,3.52-1.47l.65-.59.63-.61-.87-.94a3.54,3.54,0,0,0-2.86-1"/><path class="e" d="M148.54,96l.51-.52.5-.53a4.23,4.23,0,0,0,1.16-3.07,3.54,3.54,0,0,0-1.38-2.65l-1-.78-.38.51-.39.49a4.43,4.43,0,0,0-1,2.82,4.12,4.12,0,0,0,1.05,2.8l.88.94"/><path class="e" d="M154.38,95a6,6,0,0,0-3,1.8l-.54.57-.54.55.88.94a3.15,3.15,0,0,0,2.9.89,5.41,5.41,0,0,0,3.24-2l.54-.7.53-.71-1-.78a3.54,3.54,0,0,0-3-.53"/><path class="e" d="M151.46,90.67l1,.78.42-.6.41-.61A4.23,4.23,0,0,0,154,87a3.51,3.51,0,0,0-1.77-2.38l-1.12-.6-.29.56-.3.55a4.45,4.45,0,0,0-.5,2.93,4,4,0,0,0,1.48,2.58"/><path class="e" d="M158.08,89.43a6.08,6.08,0,0,0-2.69,2.28l-.44.65-.46.64,1,.77a3.13,3.13,0,0,0,3,.4,5.47,5.47,0,0,0,2.88-2.55l.43-.78.41-.78-1.12-.6a3.53,3.53,0,0,0-3,0"/><path class="e" d="M155.63,86.26l.32-.66.31-.67a4.25,4.25,0,0,0,.14-3.29,3.44,3.44,0,0,0-2.13-2.05l-1.2-.4-.2.6-.21.6a4.44,4.44,0,0,0,0,3,4,4,0,0,0,1.87,2.3l1.12.59"/><path class="e" d="M160.84,83.33a6.19,6.19,0,0,0-2.3,2.7l-.33.72-.35.7L159,88a3.12,3.12,0,0,0,3-.1,5.54,5.54,0,0,0,2.44-3l.3-.84.28-.85-1.2-.4a3.53,3.53,0,0,0-3,.48"/><path class="e" d="M157.92,80.61l.22-.71c.1-.35.2-.71.2-.71a4.25,4.25,0,0,0-.39-3.27,3.41,3.41,0,0,0-2.43-1.66l-1.24-.2s0,.31-.1.63l-.12.63a4.47,4.47,0,0,0,.45,2.93,4,4,0,0,0,2.22,2l1.2.4"/><path class="e" d="M162.6,76.85a6.24,6.24,0,0,0-1.83,3l-.22.76-.23.76,1.2.4a3.15,3.15,0,0,0,3-.61,5.64,5.64,0,0,0,1.93-3.37l.16-.87c.07-.45.15-.88.15-.88l-1.25-.2a3.54,3.54,0,0,0-2.88,1"/><path class="e" d="M159.38,73.93l.09-.73a4.26,4.26,0,0,0-.9-3.17,3.37,3.37,0,0,0-2.66-1.24h-1.26s0,.32,0,.64,0,.64,0,.64a4.46,4.46,0,0,0,.9,2.83,4,4,0,0,0,2.5,1.56l1.24.19s.05-.36.1-.73"/><path class="e" d="M166,68.72a3.6,3.6,0,0,0-2.69,1.45A6.33,6.33,0,0,0,162,73.48l-.09.78c-.06.39-.1.78-.1.78l1.25.19a3.16,3.16,0,0,0,2.84-1.1,5.68,5.68,0,0,0,1.37-3.64s0-.45,0-.89,0-.89,0-.89H166"/><path class="e" d="M159.68,67.81c0-.37,0-.74,0-.74a4.2,4.2,0,0,0-1.38-3,3.34,3.34,0,0,0-2.82-.79l-1.24.22.1.63c0,.32.09.64.09.64a4.45,4.45,0,0,0,1.33,2.65,3.88,3.88,0,0,0,2.71,1.13h1.26s0-.37,0-.74"/><path class="e" d="M163,63.45a6.33,6.33,0,0,0-.79,3.49s0,.4,0,.79,0,.79,0,.79h1.26a3.2,3.2,0,0,0,2.63-1.56,5.68,5.68,0,0,0,.78-3.82s-.05-.44-.12-.89-.14-.88-.14-.88l-1.24.22A3.63,3.63,0,0,0,163,63.45"/><path class="e" d="M158.86,61A4.17,4.17,0,0,0,157,58.3a3.34,3.34,0,0,0-2.9-.3l-1.19.43.2.6c.09.31.18.61.18.61A4.37,4.37,0,0,0,155.05,62a3.85,3.85,0,0,0,2.85.66l1.24-.23s-.06-.36-.13-.72-.14-.73-.14-.73"/><path class="e" d="M161.56,56.87a6.38,6.38,0,0,0-.23,3.58s.08.39.15.77.14.78.14.78l1.25-.23a3.23,3.23,0,0,0,2.35-2,5.71,5.71,0,0,0,.17-3.9l-.26-.85-.28-.85-1.19.43a3.68,3.68,0,0,0-2.1,2.25"/><path class="e" d="M157.13,55.15a4.11,4.11,0,0,0-2.23-2.35A3.34,3.34,0,0,0,152,53l-1.11.62.29.56.28.57a4.3,4.3,0,0,0,2.09,2.06,3.83,3.83,0,0,0,2.91.17l1.19-.43-.24-.7-.26-.69"/><path class="e" d="M159.47,54.19l.28.74.26.74,1.19-.42a3.29,3.29,0,0,0,2-2.35,5.75,5.75,0,0,0-.46-3.88l-.39-.8-.4-.79-1.11.62a3.71,3.71,0,0,0-1.71,2.58,6.33,6.33,0,0,0,.33,3.57"/><path class="e" d="M154.49,49.67a4.07,4.07,0,0,0-2.58-2,3.36,3.36,0,0,0-2.84.67l-1,.8.38.5.37.52a4.23,4.23,0,0,0,2.39,1.68,3.81,3.81,0,0,0,2.9-.32l1.11-.62-.36-.64-.36-.64"/><path class="e" d="M156.65,48.33,157,49l.38.69,1.1-.63a3.3,3.3,0,0,0,1.6-2.65,5.71,5.71,0,0,0-1.06-3.75l-.51-.72-.52-.71L157,42a3.78,3.78,0,0,0-1.28,2.83,6.33,6.33,0,0,0,.9,3.46"/><path class="e" d="M148.71,41.38a5.4,5.4,0,0,0,4,4.78l.66.16.66.18.06-.71c0-.36.06-.71.06-.71A4.82,4.82,0,0,0,153,41.73a4.57,4.57,0,0,0-3-1.67l-.69,0-.69,0s0,.35.08.7.06.7.06.7"/><path class="e" d="M140.58,102.78a37.42,37.42,0,0,0,8.51-6.39A38.48,38.48,0,0,0,159.51,77a39.51,39.51,0,0,0,.72-10.81,38.77,38.77,0,0,0-5.92-18.07l-.44-.67h0a1.08,1.08,0,0,0,1-.68l.41.64a40,40,0,0,1,6.12,18.69,40.83,40.83,0,0,1-.74,11.18,39.84,39.84,0,0,1-10.77,20,38.33,38.33,0,0,1-8.8,6.61,26.28,26.28,0,0,1-5.67,2.51c-1.38.37-.32.06-1.38.33l-2.06-.66a37.83,37.83,0,0,0,8.53-3.31"/><path class="e" d="M115.55,105.14l-.69-.21-.69-.23a4.08,4.08,0,0,1-2.42-2.15,3.62,3.62,0,0,1,0-3l.53-1.18.56.26.57.25a4.3,4.3,0,0,1,2.11,2,4.13,4.13,0,0,1,.35,3l-.35,1.25"/><path class="e" d="M109.9,107a5.91,5.91,0,0,1,3.48.13l.73.24.74.23-.34,1.25a3.27,3.27,0,0,1-2.16,2.2,5.31,5.31,0,0,1-3.79-.23l-.8-.36-.79-.37.53-1.18a3.62,3.62,0,0,1,2.4-1.91"/><path class="e" d="M107.84,95.77l.52.36.52.34a4.34,4.34,0,0,1,1.78,2.35,4.18,4.18,0,0,1-.14,3L110,103l-.64-.32-.64-.34a4.12,4.12,0,0,1-2-2.53,3.62,3.62,0,0,1,.49-3l.71-1.07"/><path class="e" d="M104.11,103.91a5.91,5.91,0,0,1,3.42.71l.69.36.69.35-.54,1.17a3.21,3.21,0,0,1-2.48,1.81,5.35,5.35,0,0,1-3.71-.86l-.73-.49-.72-.5.71-1.07a3.6,3.6,0,0,1,2.67-1.48"/><path class="e" d="M103.85,92.44l.45.44.46.42a4.44,4.44,0,0,1,1.38,2.62,4.16,4.16,0,0,1-.61,2.94l-.72,1.06-.59-.43-.58-.44A4.18,4.18,0,0,1,102,96.22a3.57,3.57,0,0,1,.94-2.84l.87-.94"/><path class="e" d="M98.89,99.86a5.93,5.93,0,0,1,3.26,1.27l.62.47.63.46-.72,1.06a3.18,3.18,0,0,1-2.73,1.37A5.35,5.35,0,0,1,96.43,103l-.65-.59-.63-.61.87-.94a3.54,3.54,0,0,1,2.86-1"/><path class="e" d="M100.23,96l-.51-.52-.5-.53a4.23,4.23,0,0,1-1.16-3.07,3.54,3.54,0,0,1,1.38-2.65l1-.78.38.51.39.49a4.43,4.43,0,0,1,1,2.82,4.13,4.13,0,0,1-1.05,2.8l-.88.94"/><path class="e" d="M94.38,95a6,6,0,0,1,3,1.8l.54.57.55.55-.88.94a3.15,3.15,0,0,1-2.9.89,5.41,5.41,0,0,1-3.24-2l-.54-.7-.53-.71,1-.78a3.54,3.54,0,0,1,3-.53"/><path class="e" d="M97.3,90.67l-1,.78-.42-.6-.41-.61A4.23,4.23,0,0,1,94.8,87a3.51,3.51,0,0,1,1.77-2.38l1.12-.6.29.56.31.55a4.45,4.45,0,0,1,.5,2.93,4,4,0,0,1-1.48,2.58"/><path class="e" d="M90.69,89.43a6.08,6.08,0,0,1,2.69,2.28l.44.65.46.64-1,.77a3.14,3.14,0,0,1-3,.4,5.47,5.47,0,0,1-2.88-2.55l-.43-.78-.41-.78,1.12-.6a3.53,3.53,0,0,1,3,0"/><path class="e" d="M93.13,86.26l-.32-.66-.31-.67a4.25,4.25,0,0,1-.14-3.29,3.44,3.44,0,0,1,2.13-2.05l1.2-.4.2.6.21.6a4.45,4.45,0,0,1,0,3,4,4,0,0,1-1.87,2.3l-1.12.59"/><path class="e" d="M87.92,83.33a6.19,6.19,0,0,1,2.3,2.7l.33.72.35.7-1.12.6a3.12,3.12,0,0,1-3-.1,5.54,5.54,0,0,1-2.44-3L84,84.1l-.28-.85,1.2-.4a3.53,3.53,0,0,1,3,.48"/><path class="e" d="M90.84,80.61l-.22-.71c-.1-.35-.2-.71-.2-.71a4.25,4.25,0,0,1,.39-3.27,3.41,3.41,0,0,1,2.43-1.66l1.24-.2s0,.31.1.63l.12.63a4.47,4.47,0,0,1-.45,2.93,4,4,0,0,1-2.22,2l-1.2.4"/><path class="e" d="M86.17,76.85a6.23,6.23,0,0,1,1.83,3l.22.76.23.76-1.2.4a3.15,3.15,0,0,1-3-.61,5.64,5.64,0,0,1-1.93-3.37L82.18,77c-.07-.45-.15-.88-.15-.88l1.25-.2a3.54,3.54,0,0,1,2.88,1"/><path class="e" d="M89.38,73.93l-.09-.73a4.27,4.27,0,0,1,.9-3.17,3.37,3.37,0,0,1,2.66-1.24H94.1s0,.32,0,.64,0,.64,0,.64a4.46,4.46,0,0,1-.9,2.83,4,4,0,0,1-2.5,1.56l-1.24.19s-.05-.36-.1-.73"/><path class="e" d="M82.77,68.72a3.6,3.6,0,0,1,2.69,1.45,6.33,6.33,0,0,1,1.33,3.32l.09.78c.06.39.1.78.1.78l-1.25.19a3.16,3.16,0,0,1-2.84-1.1,5.69,5.69,0,0,1-1.37-3.64s0-.45,0-.89,0-.89,0-.89h1.26"/><path class="e" d="M89.09,67.81c0-.37,0-.74,0-.74a4.2,4.2,0,0,1,1.38-3,3.34,3.34,0,0,1,2.82-.79l1.24.22-.1.63c0,.32-.09.64-.09.64A4.45,4.45,0,0,1,93,67.44a3.88,3.88,0,0,1-2.71,1.13H89.07s0-.37,0-.74"/><path class="e" d="M85.8,63.45a6.33,6.33,0,0,1,.79,3.49s0,.4,0,.79,0,.79,0,.79H85.29a3.2,3.2,0,0,1-2.63-1.56,5.68,5.68,0,0,1-.79-3.82s.05-.44.12-.89.14-.88.14-.88l1.24.22a3.63,3.63,0,0,1,2.43,1.87"/><path class="e" d="M89.9,61a4.17,4.17,0,0,1,1.83-2.7,3.34,3.34,0,0,1,2.9-.3l1.19.43-.2.6c-.09.31-.18.61-.18.61A4.36,4.36,0,0,1,93.71,62a3.86,3.86,0,0,1-2.85.66l-1.24-.23s.06-.36.13-.72.14-.73.14-.73"/><path class="e" d="M87.2,56.87a6.38,6.38,0,0,1,.23,3.58s-.08.39-.15.77-.14.78-.14.78l-1.25-.23a3.22,3.22,0,0,1-2.35-2,5.71,5.71,0,0,1-.17-3.9l.26-.85.28-.85,1.19.43a3.68,3.68,0,0,1,2.1,2.25"/><path class="e" d="M91.63,55.15a4.11,4.11,0,0,1,2.23-2.35,3.34,3.34,0,0,1,2.91.19l1.11.62-.29.56-.28.57a4.29,4.29,0,0,1-2.09,2.06,3.83,3.83,0,0,1-2.91.17l-1.19-.43.24-.7.26-.69"/><path class="e" d="M89.29,54.19l-.28.74-.26.74-1.19-.42a3.29,3.29,0,0,1-2-2.35A5.75,5.75,0,0,1,86,49l.39-.8.4-.79,1.11.62a3.71,3.71,0,0,1,1.7,2.58,6.34,6.34,0,0,1-.33,3.57"/><path class="e" d="M94.27,49.67a4.07,4.07,0,0,1,2.58-2,3.36,3.36,0,0,1,2.84.67l1,.8-.38.5-.37.52a4.23,4.23,0,0,1-2.39,1.68,3.81,3.81,0,0,1-2.9-.32l-1.11-.62.36-.64.36-.64"/><path class="e" d="M92.11,48.33l-.38.68-.38.69-1.1-.63a3.3,3.3,0,0,1-1.6-2.65,5.71,5.71,0,0,1,1.06-3.75l.51-.72.52-.71,1,.79A3.78,3.78,0,0,1,93,44.87a6.33,6.33,0,0,1-.9,3.46"/><path class="e" d="M100.05,41.38a5.4,5.4,0,0,1-4,4.78l-.66.16-.66.18-.06-.71c0-.36-.06-.71-.06-.71a4.82,4.82,0,0,1,1.17-3.35,4.56,4.56,0,0,1,3-1.67l.69,0,.69,0s0,.35-.08.7-.06.7-.06.7"/><path class="e" d="M108.18,102.78a37.43,37.43,0,0,1-8.51-6.39A38.48,38.48,0,0,1,89.26,77a39.5,39.5,0,0,1-.72-10.81,38.77,38.77,0,0,1,5.92-18.07l.44-.67h0a1.08,1.08,0,0,1-1-.68l-.41.64a40,40,0,0,0-6.12,18.69A40.83,40.83,0,0,0,88,77.31a39.83,39.83,0,0,0,10.77,20,38.33,38.33,0,0,0,8.8,6.61,26.29,26.29,0,0,0,5.67,2.51c1.38.37.32.06,1.38.33l2.06-.66a37.83,37.83,0,0,1-8.53-3.31"/><path class="c" d="M127.62,61.31a9.34,9.34,0,1,1-6.84,0,3.5,3.5,0,0,1,6.84,0m-3.42-3.45a4.22,4.22,0,0,1,4,2.92,10.19,10.19,0,0,1,6,9.3,10,10,0,1,1-20.07,0,10.2,10.2,0,0,1,6.05-9.3A4.19,4.19,0,0,1,124.19,57.86Z"/><path class="f" d="M127.63,61.32a9.34,9.34,0,1,1-6.84,0,3.5,3.5,0,0,1,6.84,0"/><path class="c" d="M124.13,42.37v15.5a3.7,3.7,0,0,0-.82.1l-.88-11,1.7-4.61m-2.88,3.91,1.44,11.88a3.73,3.73,0,0,0-.61.3l-1.74-9Zm-1.58,3.2,1.86,9.38a2.82,2.82,0,0,0-.38.35l-2.21-7.52ZM118,51.61,120.59,60a3.5,3.5,0,0,0-.23.47l-2.64-7.3Zm-2.08.88L119.73,61a4.19,4.19,0,0,0-.45.24L115.44,53Zm-2.67-.54,5.6,9.57c-.11.06-.21.15-.32.21l-5.67-9Zm-3.8-1.06,8.56,11.23-.29.24-8.41-9.56Zm-5.39-.66,12.84,12.89c-.15.16-.31.34-.43.51l-10-8.8Zm1.06,5.16L116.21,64l-.29.38-9.11-6Zm1.09,3.55,9.39,5.91c-.08.16-.19.33-.26.49l-8-4.47Zm.49,2.56,8.44,4.22a3.21,3.21,0,0,0-.24.53L107.34,63Zm-1,2,9,3.16a1.79,1.79,0,0,0-.12.37L106,64.37Zm-1.94,1.58,10.65,2.5c0,.19-.08.38-.13.58l-10.73-2.38Zm-2.93,1.58,13.38,2a3.92,3.92,0,0,0-.07.59l-12.93-1.47ZM96,69.95H114.2a.26.26,0,0,0,0,.14c0,.28,0,.55.05.83l-13.43,1Zm4.32,3.25,13.93-1.68c0,.23.07.45.12.67l-10.54,1.95Zm3.5,1.88,10.64-2.48c0,.16.09.37.14.55l-8.8,2.61Zm1.94,1.57,9-3a5.11,5.11,0,0,0,.29.67l-7.63,3.09Zm1,2.27,8.62-4,.24.44-8.23,4.35Zm-.26,2.78,9.35-6a3.18,3.18,0,0,0,.21.32l-9,6.23Zm-1.28,3.71,11.19-8.94c.09.13.21.25.31.36l-10,8.69Zm-1,5.37,13-13.46a3,3,0,0,0,.36.33l-8.09,10.75Zm5.39-1,8.71-11.49a5.6,5.6,0,0,0,.58.38l-6.37,9.59Zm3.89-1L119.44,79c.13.06.26.14.39.19l-4.51,8.52Zm6.66-9.41-4.09,8.82,1.4-.63,3-8.06Zm1,.39-2.88,9.09.52.55,2.68-9.54Zm.91.24-2.61,11.27.61-.23,2.34-11Zm-.79,14.85,1.57-14.71a2.41,2.41,0,0,0,.42,0l-1,13.67Zm3-14.61V99l2-5.55L125,80.18Zm1.27-.09,2.12,14.64.58-3.92L126,80.05C125.86,80.06,125.7,80.1,125.53,80.12Zm.93-.18,2.61,11.39.61-2.55-2.8-8.94A3.92,3.92,0,0,1,126.46,79.94Zm1.05-.31,3.23,9.45.44-1.78-3.28-7.81C127.76,79.54,127.66,79.6,127.52,79.64Zm1-.44,4.26,9,.47-.7L128.86,79A2.06,2.06,0,0,1,128.54,79.2Zm.9-.49,6,9.84.33-.93-6-9.13A3.81,3.81,0,0,1,129.44,78.71Zm1-.69,8.68,11.87.34-1.68-8.69-10.47A2,2,0,0,1,130.39,78Zm.93-.82,13.06,13.15-2.44-5-10.13-8.68C131.66,76.84,131.49,77,131.32,77.21Zm.88-1,11.18,9-2-3.29-8.94-6A4.06,4.06,0,0,1,132.2,76.16Zm.48-.69,9.79,6-1.27-2.22L133,75A3.94,3.94,0,0,1,132.68,75.48Zm.48-.84,8.55,4-.65-1.57-7.68-3C133.3,74.3,133.23,74.47,133.16,74.64Zm.39-.92,9.21,2.79-.09-.81-8.95-2.4C133.67,73.44,133.61,73.58,133.55,73.72Zm.37-1.13L144.85,75l-.2-.83-10.62-2C134,72.29,134,72.45,133.92,72.59Zm.18-.78,14.09,1.62-.63-1.14-13.39-1.06C134.14,71.42,134.12,71.61,134.09,71.81Zm.14-1.48h18.48l-5.62-1.87-12.88,1.1c0,.18,0,.36,0,.53Zm-.08-1.46L148.22,67l-3.41-.84-10.74,2.17A5.42,5.42,0,0,1,134.16,68.87Zm10.55-3.59L134,67.91c0-.17-.09-.3-.13-.46l8.94-2.8Zm-11,1.66,8.8-3.11-1.42-.42-7.58,3A5.35,5.35,0,0,1,133.73,66.93Zm-.48-1.21,8.44-4-.63-.62-8,4.25C133.14,65.5,133.2,65.6,133.25,65.72Zm-.51-.91L142,59.11l-.54-.54-8.88,6C132.65,64.65,132.71,64.74,132.74,64.81Zm-.45-.68,10.93-8.57-1.2-.33-9.93,8.64A2.79,2.79,0,0,1,132.29,64.13Zm-.82-1L144,50.31l-4.82,2.21L131,62.69A6,6,0,0,1,131.48,63.14Zm-1.12-1,8.42-11-2.93,1.67L130,61.87Zm4.73-9.75-5.7,9.07-.25-.15,4.28-8.18Zm-2.6.38-4,8.19-.31-.15a1,1,0,0,0-.06-.13l3.12-7.52Zm-2-1.12-2.75,8.25-.24-.38,2.17-7.63Zm-1.63-2.18-2.12,9.31-.33-.25,1.76-8.78Zm-1.78-3.2-1.35,11.94a2.75,2.75,0,0,0-.49-.16l.85-11Z"/><path class="b" d="M124,42.32h0l.2,0,1.89,4.54.89-.69.24-.17,0,.25,1,3.31.54-.22.14,0,.06.16.74,2.26.73-.22.21-.06-.07.2.71,1.36,1.15-.36.27-.08-.09.17.73.28h0l1.64-.73.08-.06.07.05.64.41h0L138.75,51l.13.15v0l.3,1.3,4.73-2.18.05,0,.17.14-1.91,4.86,1,.28h0l.15,0,0,.05.08,0-.18.14v0l-1.64,2.91.45.47h.08l0,.05.06,0-.1.06v0l-.9,1.94.54.53h0l0,0v0l.08.07-.12.06-.51,1.48,1.3.37,0,.14v0l.21.73h0l1.89.62v.13l.1.74,3.41.83h.16l-.16.19-1,1.32,5.46,1.83,0,.23h-.1l-4.86,1.95.51,1,.05.11.11.06-.06,0,0,0-.11,0-.12,0-3.36.67.16.7,0,.19-.17,0-.06,0-2,.66.06.71.07.13-.05,0v0l-.08,0-1.6.58.61,1.39-.12.13-.38.51,1.28,2.22v0l.07.06-.2.06h0l-.85.28,1.9,3.16h0l.13.14-.24,0-1.26.13,2.39,5-.21.13-.16-.17-4.63-1.83-.31,1.48,0,.25L139,90l-3.19-2.08-.24.7-.07.24-.14-.22,0,0-2-1-.4.62-.1.18-.11-.19,0,0-1.38-.7-.42,1.66h-.23v0l-.84-.21-.61,2.47H129v0l-.62-.33-.58,3.78V95l-.18-.17-1.29-1.13L124.38,99l-.24,0v0l-1.92-4.92-.84.83-.2-.08v-.13l-1.13-3.52-.54.19h0l-.07.06,0,0-.09,0,0-.19-.61-1.76v0l-.5-.48v0l-.09-.1v0l-.72-1.15-1.26.56,0,0-.08.08-.09-.07-.62-.46-1.79,1-.12-.12,0,.09-.93-.43-2.87,1.48,0,0-.12.09,0-.2-.17-1.13-5.07,2.27-.12-.2v0l2.3-5-1.21-.11-.07-.21.09-.07,1.66-3-.47-.46-.12-.1.12-.1h0l.79-1.88-.59-.7-.08-.12.13-.06.63-1.35-1.6-.72v0h-.11l0-.14.08-.73-1.94-.65V75l0,0v-.83l-3.45-.93,0-.16h0l.34-1.21L96,70.08l0-.24h0l5.07-2-.34-1-.19-.1.14-.05,0,0,.11,0,0,0,2.66-.83.16-.63-.05-.08.11-.05h.06l2.06-.66-.23-.75v0l-.08-.08.06,0,0-.12.18.06,1.43-.46-.59-1.4h0l0-.05.06-.08.55-.52L106.16,59l.15-.15-.13,0,.49-.53-1.61-2.87.15-.14h-.06l1.22-.55L104,50.29l.15-.1,0,0,5.06,2.44.12-1.71.21,0,0,0,3.33,1.72.32-.62.07-.2.13.19,0,0,2,.87.42-.41.13-.12.06.14,1.55.62.29-1.45h.18l0-.05.82.06.71-2.14h.16l0,0h.56l.89-3.17.19,0,0,0,1.1.52,1.6-4.38v0h0m11.1,10.1v0Zm7,3h0l-.11,0h0l.07-.21-.11.06,1.85-4.69-4.55,2.08-.08.12-.2-.09v-.08l-.29-1.29-2.74,1.58h-.23l0,0-.63-.41-1.59.72-.28,0v0l-.8-.31-1.09.33-.23,0h0l-.7-1.43-.88.18v-.08l-.74-2.26-.51.15-.24,0v-.06l-1-3.21-.84.63v0H126l0-.06-1.82-4.4-1.54,4.15,0,.12V47l-.15,0,0,0-1.13-.53-.82,3,0,.12-.14,0-.61,0-.68,2v0h0l-.17.1h0l-.78-.05-.26,1.35v0l-.19.13h0L116,52.64l-.47.42-.13-.16V53h0l-2.06-.87-.21.47-.08.1v.07l-.16-.07,0,.06-3.29-1.71-.11,1.6,0,.08v0l-.2,0,.06.08-4.95-2.38,2.23,4.27,0,0-.12.19,0,0-1.14.52,1.54,2.75.05.07-.2.11.09.07.08,0-.49.53,1,1.83.08,0-.07.22h-.07l-.5.49.57,1.37,0,0-.06.23h0l-1.44.45.19.66h0l0,0,0,0,0,0v.2l-.06,0-2.12.64-.22.69-.05-.11,0,.19-2.64.8.37,1.06-.09-.07,0,.23-5,2,4.44,1.81,0,0,.06.22,0-.05-.33,1.21,3.3.88h0l.13,0v1l1.82.61h0l.17-.05,0,.19-.08.72H106l0,.14,1.52.67h0l.13.15-.7,1.49.43.51.14.17-.16.13.16,0-.82,2L107,82l.11.09,0,0-.12.14.12,0-1.68,3.05,1,.1h.16v.19h0l0,0v0l-2.23,4.88,5-2.24.07.19h0v0l.19,1.11,2.75-1.42,0-.1.2.12v0l.83.4,1.69-1h0l.22.06,0-.1L116,88h0l1.37-.61,0,.06.22,0v0l.79,1.25h-.09l.07.06v0l.54.54h0l0,0,.64,1.79.49-.18L120,91l.22,0,1.18,3.58.7-.72.07-.07h0l.15.15,0-.1,0,.05v0l1.86,4.78,1.87-5.19h0l0,0,.2.08,0-.1,1.27,1.1.53-3.68h0l-.07-.25.24.11.73.41.55-2.32-.05-.2.2,0,1,.26.37-1.57-.14-.39v0l.21,0,.17.37,1.51.76.33-.5.06-.08.18.12,0-.15,2.06,1,.21-.62,0-.06v-.08l.17,0,0,0,3.21,2.1.29-1.36v-.14l.18,0,0-.06,0,0L144.08,90l-2.23-4.62-.09-.07.12-.21.07,0,1.23-.12-1.87-3.12v0l.06-.22h0l.88-.3-1.18-2h0l0-.22-.06,0,.48-.6v.1l0,0L141,77.3l0-.1,0-.05.17-.08-.06,0,1.59-.56-.07-.7-.14,0,.18-.15h0l0,0,2-.69-.18-.68.06.06V74h0l3.37-.68-.52-1,0-.11.11-.07,5.16-1.88-5.07,1.86,4.68-1.88-5.23-1.73h-.24l.16-.21L148,67l-3.19-.76-.09,0-.1-.2,0,.08-.1-.86-1.68-.53-.06,0-.13-.17v.07l-.23-.79-1.31-.38.06-.22-.08,0,0,0,.55-1.57-.57-.57.12-.13H141l.9-2-.53-.54,0-.06,1.65-2.9ZM103.89,65.2l0-.08,0,.1Zm15.58,26-.06,0,.1.07Zm23.25-14.68v0l.07-.1Zm-1.11-14.63v0Z"/><path class="c" d="M124,64.93l.47-1.69,1.75,0-1.46-1,.59-1.65L124,61.74l-1.39-1.08.6,1.65-1.45,1,1.75,0,.5,1.69m3.74.38a5.89,5.89,0,1,1-7.33,0,4.87,4.87,0,1,0,7.33,0Z"/><path class="e" d="M114.8,157.45v-1.3a3.21,3.21,0,0,0,1.91-1.28h1v5.24h1.56v1.15h-4.57v-1.15h1.71v-3.6a12.23,12.23,0,0,1-1.57.94"/><path class="e" d="M123,157.86a1.61,1.61,0,0,1,1,1.55,1.81,1.81,0,0,1-.6,1.4,2.47,2.47,0,0,1-1.73.55,2.29,2.29,0,0,1-1.6-.51,1.67,1.67,0,0,1-.55-1.29,1.43,1.43,0,0,1,1-1.4,1.6,1.6,0,0,1-.82-1.43,1.79,1.79,0,0,1,.54-1.31,2.05,2.05,0,0,1,1.52-.54,2.2,2.2,0,0,1,1.48.47,1.5,1.5,0,0,1,.55,1.19,1.39,1.39,0,0,1-.85,1.33m-1.54.77a.88.88,0,0,0-.71.88.75.75,0,0,0,.27.62,1.18,1.18,0,0,0,.77.22,1.27,1.27,0,0,0,.7-.17.57.57,0,0,0,.27-.51.71.71,0,0,0-.19-.48A3.28,3.28,0,0,0,121.51,158.63Zm.67-1.18a.77.77,0,0,0,.57-.8.8.8,0,0,0-.24-.6.94.94,0,0,0-.68-.23.79.79,0,0,0-.56.19.65.65,0,0,0-.2.49.66.66,0,0,0,.2.48A2.83,2.83,0,0,0,122.18,157.45Z"/><path class="e" d="M128.39,154.87v3.84h.79v1.1h-.79v1.45h-1.32v-1.45h-2.47v-1.1l2.28-3.84h1.51m-2.79,3.84h1.53v-2.13c0-.08,0-.18,0-.3V156Z"/><path class="e" d="M133.63,156.26h-2.47l-.09,1.4a1.5,1.5,0,0,1,1.2-.54,1.73,1.73,0,0,1,1.3.56,2,2,0,0,1,.53,1.45,2.28,2.28,0,0,1-.58,1.61,2.32,2.32,0,0,1-3.84-1.16l1.24-.21a.92.92,0,0,0,.94.83.82.82,0,0,0,.66-.29,1,1,0,0,0,.24-.67,1,1,0,0,0-.26-.7.81.81,0,0,0-.63-.29.89.89,0,0,0-.81.49l-1.08-.2.22-3.57h3.56l-.14,1.29"/><path class="e" d="M127,145.36c-.46.1-.9.45-.61,1a.62.62,0,0,1,.76-.27c0,.44.57,0,.86.12,0,.3.29.08.62.15.77.16,2.38.76,2.53.23.47.1.23.44,0,.78.86-.37.66-.89.36-1.19a1.94,1.94,0,0,0-.06-.6c.65-.23.76.24.84.61.47-1.13-.05-1.4-.84-1.48a5.61,5.61,0,0,0-.8,0c0-.12.23-.1.56-.22s.22-.3.65,0c-.11-.59-.29-.66-1.08-.49a1.11,1.11,0,0,0-1,.76h-.49c-.88.33-.53-3.74-.76-5.62.33,0,.37-.23.44-.5.11.14.46-.12.5-.28l.64,0,.07.45.58-.13.1.67.7-.11.11,1.34h.82l0,.25.83,0,.51,4.58.89.07c.2,1.25.39,2.54.59,3.81.12.57.87.72,1.36.8l-1-4.45,1.26.14-.78-3.32.25,0,.56,0-.9-4.82c1,0,.94-.51,1.23-.8-1.74-.29-2.36-4.08-4.91-4.08-2,0-4.72,3.79-5.48,3.1-.11-.21-.23-.42-.35-.6-.41.83-1.06,1.12-2.24,1.12a2.18,2.18,0,0,1-2.22-1.12c-.12.18-.24.39-.35.6-.76.69-3.44-3.1-5.49-3.1-2.56,0-3.17,3.79-4.91,4.08.29.3.25.84,1.23.8l-.9,4.82.57,0,.24,0-.78,3.32,1.27-.14-1,4.46c.49-.09,1.24-.23,1.37-.8.19-1.28.39-2.57.58-3.82l.89-.07.51-4.58.83,0,0-.25h.82l.11-1.34.71.11.09-.67.58.13.07-.45.64,0c0,.16.39.42.5.28.07.27.12.53.44.5-.23,1.88.12,5.95-.76,5.62H119c-.07-.41-.79-.87-1-.76-.8-.17-1-.11-1.09.49.44-.3.4-.15.64,0s.56.1.59.22a8,8,0,0,0-.81,0c-.8.08-1.32.35-.85,1.48.09-.36.2-.83.85-.59-.1.11-.14.28-.06.59-.29.3-.5.82.35,1.19-.18-.34-.43-.68,0-.77.16.53,1.76-.08,2.54-.23.33-.09.59.15.62-.15.26-.07.82.17.86-.14a.62.62,0,0,1,.75.28c.29-.57-.15-.93-.61-1,0-.33-.34-.33-.57-.39s-.14-.15-.17-.3a6.22,6.22,0,0,1,.78-1.34c.09-.09.35,0,.51.09a1.76,1.76,0,0,0,.06-.22.88.88,0,0,1,.17,1,1.75,1.75,0,0,0,0,.55l.32.23a1.16,1.16,0,0,1,.11.42c.08.83-.4.33-1.13,1.8a3.35,3.35,0,0,0,5,0c-.72-1.47-1.21-1-1.12-1.8a1.11,1.11,0,0,1,.11-.42l.33-.23a2.12,2.12,0,0,0,0-.55.88.88,0,0,1,.17-1c0,.07,0,.13.06.22.17-.09.42-.17.51-.09a6.41,6.41,0,0,1,.79,1.34.38.38,0,0,1-.17.3c-.23.06-.58.06-.57.4"/><path class="e" d="M124.36,135.91h0a2.85,2.85,0,0,1-1.19-.23,3.23,3.23,0,0,1-1.08-.83l-.07-.08v-.1a3.22,3.22,0,0,1,.17-.76c.12-.38.25-.65.07-1l-.28,0a1.51,1.51,0,0,1-.69-.12,1.34,1.34,0,0,1-.66-.69,2.61,2.61,0,0,0-.48-.25.44.44,0,0,0-.65.29l-.14.38-.27-.3c-.64-.73-.63-1.28-.31-1.71a2.6,2.6,0,0,1,1.3-.76,1.27,1.27,0,0,1,1.18-.72,2.83,2.83,0,0,1,1.47.76l0,0a1.24,1.24,0,0,1,.57-.39.7.7,0,0,1,.61.09l.08.07.1.09,0,.13c0,.16-.06.32-.1.48s-.05.17-.08.26a1.65,1.65,0,0,1,.49.95,2.66,2.66,0,0,1,.21-.52,1.26,1.26,0,0,1,.25-.35l0,0a2,2,0,0,1-.26-.75v0l0-.17.15-.09.12-.07a.86.86,0,0,1,.68,0,.91.91,0,0,1,.39.3,4.48,4.48,0,0,1,.91-.61,1.33,1.33,0,0,1,.93-.09,2.06,2.06,0,0,1,1,.78,2.41,2.41,0,0,1,1.27.77c.3.42.29,1-.33,1.69l-.21.25-.17-.28c-.29-.47-.79-.24-1.15-.07a1.28,1.28,0,0,1-1.14.8,2.14,2.14,0,0,1-.33,0l-.17,0-.07.15-.06.12c.05.23.12.44.17.64a3.66,3.66,0,0,1,.2.85v.11l-.08.08a3.72,3.72,0,0,1-1,.74l-.2.09a3,3,0,0,1-1.15.23"/><path class="e" d="M124.36,151.64a1,1,0,0,1-.89-.41.93.93,0,0,1-1.25-.36,1.12,1.12,0,0,1-1.12-.55.31.31,0,0,1-.11.1.68.68,0,0,1-.62-.73,1.16,1.16,0,0,1-.63-.63c.64-.53,1.28-1.07,1.89-1.61a3.62,3.62,0,0,0,5.47,0c.6.53,1.24,1.07,1.89,1.61a1.17,1.17,0,0,1-.63.63.68.68,0,0,1-.62.73.33.33,0,0,1-.11-.1,1.12,1.12,0,0,1-1.11.55.93.93,0,0,1-1.25.35,1,1,0,0,1-.9.41"/><path class="a" d="M121,130c.22,0,.45.17.45.34s-.22.34-.45.34-.44-.17-.44-.34.22-.34.44-.34"/><path class="a" d="M127.34,130c-.22,0-.45.17-.45.34s.22.34.45.34.44-.17.44-.34-.23-.34-.44-.34"/><path class="a" d="M125.25,151.24c-.07-.32-.13-.65-.18-1s-.15-.84-.24-1.22h0c.09.39.16.79.24,1.22s.12.64.18,1h0m-1.78,0h0c.06-.29.11-.58.16-.87.08-.46.17-.9.26-1.32h0c-.1.41-.18.85-.26,1.32C123.58,150.66,123.53,150.95,123.47,151.24Zm3-.34a6.11,6.11,0,0,1-.36-1c-.14-.4-.3-.86-.42-1.18h0c.12.32.28.78.42,1.18s.33.94.35,1h0Zm-4.3,0h0a6,6,0,0,0,.22-.62c.16-.47.37-1.11.55-1.52h0c-.18.41-.39,1.05-.55,1.52A2.84,2.84,0,0,1,122.2,150.89Zm-1.1-.55h0l.08-.11,1.13-1.56h0l-1.13,1.56Zm6.52,0-.46-.64-.74-1h0l.74,1,.46.64Zm-7.25-.63h0a14.91,14.91,0,0,1,1.22-1.32l.3-.3h0l-.3.3A14.8,14.8,0,0,0,120.38,149.71Zm8,0a13.79,13.79,0,0,0-1.17-1.28l-.34-.34h0l.34.34a13.91,13.91,0,0,1,1.17,1.28ZM124,148.07h0a19.32,19.32,0,0,0,.12-2.58h0A19.45,19.45,0,0,1,124,148.07Zm.61,0c-.08-.88-.08-1.74-.08-2.58h0c0,.84,0,1.71.08,2.58Zm.58-.16a10.57,10.57,0,0,1-.39-2.42h0a10.56,10.56,0,0,0,.39,2.42Zm-1.7,0h0c0-.23.07-.47.11-.71.09-.57.18-1.16.24-1.72h0c-.06.56-.15,1.15-.24,1.72C123.61,147.4,123.57,147.64,123.53,147.87Zm-.66-.28h0a9.81,9.81,0,0,0,.53-1.74l.13-.53h0l-.13.53A9.82,9.82,0,0,1,122.87,147.6Zm2.82,0c-.18-.62-.38-1.45-.54-2.27h0c.17.81.36,1.64.54,2.27Zm-3.37-.37h0a5.78,5.78,0,0,0,.93-2h0A5.82,5.82,0,0,1,122.33,147.23Zm4.07,0a4.58,4.58,0,0,1-.89-2h0a4.64,4.64,0,0,0,.89,2Zm-8.75-.59h0a.48.48,0,0,0-.11-.37.32.32,0,0,0-.27-.06h0a.33.33,0,0,1,.28.06A.49.49,0,0,1,117.64,146.61Zm13.47,0c-.15-.16-.21-.27-.2-.37s.08-.16.2-.23h.05a.53.53,0,0,1,.34.19h0a.53.53,0,0,0-.34-.18h0c-.12.07-.18.14-.19.22s0,.21.2.36Zm-4-.49h0a.62.62,0,0,0-.15-.74h0A.63.63,0,0,1,127.11,146.11Zm-5.44,0a.62.62,0,0,1-.14-.53.35.35,0,0,1,.27-.21h0a.34.34,0,0,0-.26.2.61.61,0,0,0,.13.52Zm9.74-.43a2.13,2.13,0,0,0-1-.11,2.85,2.85,0,0,1-1-.09h0a2.17,2.17,0,0,0,.74.09h.23a2.35,2.35,0,0,1,.95.1.72.72,0,0,1-.23-.52.54.54,0,0,1,.25-.37h0a.53.53,0,0,0-.25.36.74.74,0,0,0,.25.54h0Zm4.32,0h-.16l-1.48-8.81h0l1.48,8.8h.15Zm-22.53,0h0l1.48-8.8h0Zm4.12,0h0a.71.71,0,0,0,.31-.56.43.43,0,0,0-.26-.31h0a.44.44,0,0,1,.27.32.67.67,0,0,1-.27.54,2.57,2.57,0,0,1,1-.1,2.82,2.82,0,0,0,1-.09h0a2.86,2.86,0,0,1-1,.09,2.36,2.36,0,0,0-1,.11h0Zm17.41-.15-.54-3.75c-.24-1.69-.49-3.44-.74-5.14h0c.25,1.7.5,3.45.74,5.14l.54,3.75Zm-20.71,0h0c.14-1,.27-1.94.41-2.89.28-2,.56-4,.87-6h0c-.31,2-.6,4-.87,6C114.29,143.51,114.16,144.48,114,145.45Zm10.54-.24h-.33a2.7,2.7,0,0,1-1.53-.44l-.13-.08h0l.14.08a2.68,2.68,0,0,0,1.52.44h.33a2.76,2.76,0,0,0,1.52-.46l.1-.06h0l-.1.06A2.76,2.76,0,0,1,124.56,145.2Zm-.2-.6a2.06,2.06,0,0,1-1.49-.6l-.24-.19h0l.24.19a2,2,0,0,0,1.48.6,2,2,0,0,0,1.44-.6l.24-.2h0l-.24.2A2,2,0,0,1,124.36,144.61Zm-6.8-.07h0c.25-.09.4-.43.43-.53h0C118,144.1,117.82,144.45,117.57,144.54Zm13.57,0a1,1,0,0,1-.4-.5h0a1,1,0,0,0,.4.5Zm-5.08-.69a9.52,9.52,0,0,1-.59-2.63,2.26,2.26,0,0,1,.4-1.55,2.34,2.34,0,0,1,2.3-.5,1.73,1.73,0,0,1-.33-.22,2.47,2.47,0,0,0-.29-.21h0a2.45,2.45,0,0,1,.3.21c.22.17.43.34.67.23h0a.4.4,0,0,1-.31,0h0a2.36,2.36,0,0,0-2.34.49,2.25,2.25,0,0,0-.39,1.54,9.49,9.49,0,0,0,.59,2.63Zm-3.38,0h0a9.56,9.56,0,0,0,.57-2.62,2.24,2.24,0,0,0-.4-1.54,2.3,2.3,0,0,0-2.26-.48.43.43,0,0,1-.35,0h0a.41.41,0,0,0,.3,0h0a1.76,1.76,0,0,0,.38-.24,2.68,2.68,0,0,1,.29-.2h0a2.67,2.67,0,0,0-.29.2,2.14,2.14,0,0,1-.33.22,3.75,3.75,0,0,1,1.31,0,1.54,1.54,0,0,1,.92.51,2.25,2.25,0,0,1,.4,1.55A9.59,9.59,0,0,1,122.68,143.8Zm3.64-.63c-.34-1.56-.24-2.61.28-3.14a2,2,0,0,1,2-.28h0a2,2,0,0,0-2,.28c-.52.52-.62,1.58-.28,3.13Zm-3.91,0h0c.38-1.54.31-2.58-.2-3.11a2,2,0,0,0-2-.29h0a2,2,0,0,1,2,.3C122.72,140.58,122.78,141.63,122.41,143.17Zm-9.47-.67h0l-.39,0h0l.38,0,1-5.27h0Zm22.89,0h0l-1-5.28h0l1,5.27.38,0h0Zm-23.63-.09h0l.87-4.86a.84.84,0,0,1-.41,0h0l.2,0c.54,0,1.11-.53,1.74-1.18h0a3.89,3.89,0,0,1-1.52,1.15Zm24.3,0-.89-4.85h0l.89,4.85Zm-3.17-1.59-.51-4.49h0l.51,4.49Zm-17.89,0h0l.5-4.49h0Zm.84-.28h0l.5-4.13h0Zm16.2,0-.54-4.13h0l.54,4.13Zm-15.26-1.33h0l.16-2.66h0Zm14.33,0-.2-2.66h0l.2,2.66Zm-2.58-.52c-.38,0-.72-.5-.82-.64h0c.09.14.43.59.81.64Zm-9.16,0h0c.37,0,.72-.5.81-.64h0C120.52,138.15,120.18,138.61,119.8,138.65Zm-1.79,0h0l.19-1.87h0Zm12.73,0-.24-1.87h0l.23,1.87Zm-1.25-.26-.23-1.2h0l.23,1.2Zm-10.2,0h0l.19-1.31h0Zm10.81,0-.27-1.43h0l.27,1.43Zm-11.44,0h0l.24-1.43h0Zm17.3-.69c-.56,0-1.21-.62-1.72-1.18h0c.51.56,1.16,1.18,1.71,1.18l.18,0h0Z"/><polyline class="e" points="120.83 104.44 118.55 104.44 118.55 105.54 120.34 105.54 120.34 106.55 118.55 106.55 118.55 107.71 120.83 107.71 120.83 108.77 117.41 108.77 117.41 103.42 120.83 103.42 120.83 104.44"/><path class="e" d="M125.24,105.91v2.86h-.51a4.74,4.74,0,0,0-.16-.62,1.56,1.56,0,0,1-1.31.7,1.68,1.68,0,0,1-1.46-.75,3.31,3.31,0,0,1-.52-1.94,3.45,3.45,0,0,1,.56-2.05,1.77,1.77,0,0,1,1.51-.78,1.73,1.73,0,0,1,1.29.5,2.26,2.26,0,0,1,.6,1.34l-1.07.16q-.13-1-.83-1a.74.74,0,0,0-.69.46,3,3,0,0,0-.23,1.31,2.54,2.54,0,0,0,.25,1.26.79.79,0,0,0,.72.44.77.77,0,0,0,.54-.22.92.92,0,0,0,.24-.7h-.9v-1h2"/><polyline class="e" points="128.25 108.77 127.07 104.41 127.07 108.77 126.13 108.77 126.13 103.42 127.88 103.42 128.72 106.62 129.6 103.42 131.36 103.42 131.36 108.77 130.23 108.77 130.23 104.41 129.02 108.77 128.25 108.77"/></svg>