<svg xmlns="http://www.w3.org/2000/svg" viewBox="0 0 248.76 182.52"><defs><style>.a{fill:#bc3030}.b{fill:#1b9fce}</style></defs><title>Yimer_157</title><path class="a" d="M109.29,169.33c3-4.27,6.84-5.25,11.29-5,3.82.2,7.67-.06,11.5.09a8.64,8.64,0,0,1,8.72,9c.05,5.21-3.25,8.78-8.54,9-3.83.17-7.66.12-11.5.13-7.63,0-8.29-.35-12.27-6.78a91.94,91.94,0,0,1-51.19-22c-14.85-12.67-24.77-28.53-31.14-47-2.89-.42-5.85-.74-8.76-1.29C5.88,103.24.22,96.42.12,84.7c0-5.66,0-11.33-.12-17C-.11,59.53,3.89,54.17,11.34,51.3a43,43,0,0,1,18.2-3.06c-.77,6.64-1.85,13-2.2,19.38-2.39,43.54,23.77,86.9,67.49,98.77C99.45,167.63,104.24,168.31,109.29,169.33Z"/><path class="b" d="M101.36,52.63l3,13.78,2.78-13.82h15.26V85.33h-9.83V66.76l-.73-.15-3.95,18.8h-7L97,68.27h-.51v17.4H86.12V52.63Z"/><path class="b" d="M229.73,74.26c2.32,2.23,5.2,4.11,6.85,6.75,4.37,7,8.22,14.29,12.17,21.29-5.11.45-10.69.61-16.15,1.49-14.21,2.3-24.48,11.13-34.37,20.81-7.94,7.77-16.07,15.48-24.92,22.15-10.59,8-23.33,11.18-36.39,12.36-18.35,1.66-36.17-.5-53-8.66a98.36,98.36,0,0,1-25.77-18.63,11.13,11.13,0,0,1-1.48-2.5L57,129c4.47,3.4,8.89,6.89,13.43,10.2,14.28,10.42,30.5,15.2,48,16,13.56.59,26.87-.79,39.57-6.07,12.42-5.16,22.13-13.89,31.41-23.3a195.18,195.18,0,0,1,15.93-15.06c9.34-7.56,20.33-11,32.34-11.3,1.6,0,3.19-.2,5-.32l-13-24.8Z"/><path class="b" d="M60.74.26,75.07,10.34,89,.11l1.09.55L85,17.91,99.17,29.05l-.16.86H81.4L75.3,49,69.16,30.35H50.41C55,25.1,60.34,22.4,65.08,18c-.74-2.56-1.65-5.34-2.33-8.18C62,6.6,61.44,3.39,60.8.19Z"/><path class="b" d="M151.14,52.34c6.08,0,11.73-.23,17.35.08,3.65.2,7.34,1,8.5,5.49,1.07,4.12,1.13,7.9-3,10.5,6.09,4.88,2.59,11.14,3.81,17.08h-11v-13l-3.9-2.23V85.79H151.14Zm12.08,12.59c3,.31,3.37-1.41,3.31-3.39s-.86-3.43-3.31-3Z"/><path class="b" d="M137.33,1.64c28.16,3.09,58.94,30.81,57.49,67-1.48,36.67-33.48,61.31-62.1,63.27,15.21-3.77,28.57-10.81,39.31-22.34S189.49,84,189.31,68.17C188.93,33.13,168.73,12.92,137.33,1.64Z"/><path class="b" d="M127.44,52.45h19.15v6.28l-7.32.81-.37,5.31,7.29.73v5.56l-6.73.91V79h8v6.82h-20Z"/><path class="b" d="M59.29,85.43H48.77c-1-5.91-1.6-11.5-3.08-16.83s-3.88-10.53-6-16.16H50.43l2.92,11.09,3.29-11H67C64.18,63.55,56.33,73,59.29,85.43Z"/><path class="a" d="M111.34,108.15l-2.8,2.32h-6.67V94.92h16.8l.37,4.52-9.43.42-.49,4.24a35.82,35.82,0,0,1,4.61-.95c3.76-.26,6,1,6.41,4.7a60.37,60.37,0,0,1,.17,13.39c-.38,3.81-4,6-8.59,6-5.22.09-8.82-2-9.74-6a40.35,40.35,0,0,1-.42-6.52c1.45-.12,2.41-.24,3.38-.27,1.31,0,2.62,0,4.21,0l1.23,8C113.14,119.55,113.4,112.95,111.34,108.15Z"/><path class="b" d="M69.76,85.75V52.5H81.06V85.75Z"/><path class="a" d="M137.82,95.08l-6.6,31.15h-7.89l5.28-25.56-7.47-.5-.36-5.09Z"/><path class="a" d="M90.77,100.82l-3.66-1.43V94.85H98.33v31.34H90.77Z"/><path class="b" d="M181.73,16.26c3.86,3.31,8,6.32,11.51,10a73.51,73.51,0,0,1,19.85,41,12.58,12.58,0,0,1,0,1.6,17.05,17.05,0,0,1-1.92.51,10.61,10.61,0,0,1-1.8-.08c-.72-3.7-1.29-7.43-2.19-11.07C203.55,43.45,195.83,31.08,185,20.53c-1.26-1.23-2.3-2.69-3.44-4Z"/><path class="b" d="M220.79,84.68,216.41,83l.05-1.48c1.17-.45,2.49-1.46,3.46-1.2s1.43,1.86,2.12,2.87Z"/><path class="b" d="M227.68,73.35l2.05.91,0,.05-2-1Z"/><path class="b" d="M60.8.19l-.15,0,.1.12Z"/><polygon class="b" points="227.73 73.29 227.56 73.08 227.68 73.35 227.73 73.29"/><path class="b" d="M47.76,117.23l-.29-.27.23.33Z"/><path class="b" d="M51.74,123.26l-.07-.06,0,.09Z"/><path class="b" d="M56.66,129.32l-.94-1.05,0,0L57,129Z"/></svg>