<svg xmlns="http://www.w3.org/2000/svg" viewBox="0 0 248.76 182.52"><defs><style>.a{fill:#081d48}.b{fill:#078cd5}</style></defs><title>alo170</title><path class="a" d="M117.86,117.59c.22-13.63,5.16-25.35,15.36-34.75A40.7,40.7,0,0,1,190.9,85a46.29,46.29,0,0,1,11.84,22.25,47.74,47.74,0,0,1-3.39,31.12c-4.35,9.23-10.82,16.7-20.17,21.25C164,167,149.47,165.53,136,155.52c-9.54-7.11-15-16.83-17.36-28.22A34.62,34.62,0,0,1,117.86,117.59Zm13.9.39c0,1.28-.1,2.57,0,3.84.71,7.77,3.4,14.78,9,20.46a28.45,28.45,0,0,0,46.25-9,38.26,38.26,0,0,0,1.94-25.14C185.48,94,174.3,84.18,158.19,85.43A26.61,26.61,0,0,0,138.46,96.1C133.46,102.56,131.61,110,131.76,118Z"/><path class="a" d="M38,86.53V73.48a3.78,3.78,0,0,1,2.93-.76h77.33a1.68,1.68,0,0,1,1.74.75c.55,1.71.09,4,.17,6.19s0,4.53,0,6.89L66.83,162.76H51c3.15-4.48,6.1-8.66,9-12.86s5.77-8.3,8.66-12.45l8.83-12.68,8.87-12.67c2.9-4.14,5.86-8.24,8.69-12.42s5.91-8.25,9-13c-4.2-.21-7.79-.08-11.38-.1s-7.28,0-10.92,0H38Z"/><path class="a" d="M166,60.72c-9.71.05-17.66-2-24.66-7.06A27,27,0,0,1,130,35.26a27.53,27.53,0,0,1,5.28-21.77c4.75-6.25,11.4-9.92,19-11.84a41.65,41.65,0,0,1,28.3,2.49c12.38,5.72,19.29,16.85,17.3,30.76-1.59,11.12-8.31,18.24-18.47,22.66A36.77,36.77,0,0,1,166,60.72Zm-1.86-11.16c4.32,0,7.86-.36,11.32-1.78,7.41-3,11.17-8.51,11.62-16.14.47-7.92-2.92-14-10.26-17.57a27.06,27.06,0,0,0-20.88-1.19c-7.31,2.4-11.94,7.21-13.06,14.78-1.08,7.28,1.57,14.5,8.36,18.61A23,23,0,0,0,164.14,49.56Z"/><path class="b" d="M219.44,182.26c-2.95-3.39-6.09-6.28-8.75-9.76-.41-1,.34-1.69,1-2.46a72.83,72.83,0,0,0,10.77-15.91,80.28,80.28,0,0,0,7.82-26,92,92,0,0,0,.34-17.38,76,76,0,0,0-5.82-23.83,74.23,74.23,0,0,0-13.33-21.2,2.32,2.32,0,0,1-.75-2.38l8.53-9.47a7.82,7.82,0,0,1,3.51,3A97.68,97.68,0,0,1,237,80.27a118.68,118.68,0,0,1,6.29,21,35.63,35.63,0,0,1,.69,5.24c.3,4.71.88,9.4.62,14.13a106.38,106.38,0,0,1-4.19,25.71,96.07,96.07,0,0,1-15.31,29.74C223.54,178.22,222,180.5,219.44,182.26Z"/><path class="a" d="M75.79,59.09H63.12l-6-12H23.91l-6,12H5.31c2.72-6.81,6.15-13,9.13-19.38S20.71,27.31,23.62,21,29.87,8.76,32.77,2.25H48.37c3,6,6.08,12.25,9.13,18.53S63.72,33.54,66.72,40,72.9,52.43,75.79,59.09Zm-35-45.89-.74.13C36.48,20.71,32.74,28,29.28,35.55c5.9.64,20.39.4,22.27-.36Z"/><path class="a" d="M17.1,162.39V87.95l-13,6.11V81.25c4.71-2,9.29-4.39,12.93-8.16h13.2c.85.74.66,1.56.67,2.33.49,26.75.16,84.95-.5,87.15A53.92,53.92,0,0,1,17.1,162.39Z"/><path class="b" d="M195.84,79.89,205,69.58c7,4.05,17.13,25.85,18.6,37.56,3.59,28.54-8.33,49.45-18.47,59.41-2.91-3.48-6.32-6.51-9.23-10.44,4.48-5.32,8.52-11,11-17.6A57,57,0,0,0,207,97.73C204.59,91.11,200.63,85.34,195.84,79.89Z"/><path class="a" d="M77.75,58.87c-.53-4.38-.34-54.65.19-56.43a52.64,52.64,0,0,1,12.49,0v44.7a4,4,0,0,0,.45.57.68.68,0,0,0,.29.08,7.4,7.4,0,0,0,.9.09h37.62c1.46,1.64.58,3.59.72,5.36s0,3.69,0,5.46C128.13,59.32,80.94,59.43,77.75,58.87Z"/><path class="b" d="M167.93,110.39c3.08-3.6,6-7,9.11-10.13,7.4,5.67,9.37,26,.07,35.58-3.21-3.22-6.14-6.64-9.13-10.15C169.92,120.63,170.5,115.58,167.93,110.39Z"/></svg>