<svg xmlns="http://www.w3.org/2000/svg" viewBox="0 0 517.47 378.54"><defs><style>.a{fill:#29016c;}.b{fill:#e7d201;}.c{fill:#ac0404;}</style></defs><title>ndrawer_logo</title><path class="a" d="M137.46,0C162,2.57,182.07,13,196.71,33.14a76.55,76.55,0,0,1,14.69,54.5c-2.7,26-15.55,46-37.61,60.13-.47.3-1,.54-1.73.93a205.35,205.35,0,0,1-3-20.51c-1.28-12-2.46-24.06-3-36.15-.69-13.6-.36-27.19-.45-40.79,0-1.47.52-2,1.87-2.21a14.64,14.64,0,0,0,4.89-1.43c3.05-1.62,4.52-4.12,4.12-7.19s-2.06-5.05-5.57-5.57c-2.83-.42-4.27-1.12-5.11-4.3-1.37-5.11-8.83-6-12.31-1.81a10.75,10.75,0,0,0-2,4.65c-.89,3.82-.87,3.92-4.8,4.28-11.36,1-22.74,2-34.16,2.29s-23.08,0-34.62-.2c-3.76-.08-7.55-.41-11.28-.69-2.63-.19-2.84-.55-1.37-2.71C77.22,18.55,93.52,7,114.48,2c2.62-.66,5.52-.31,7.88-2Z"/><path class="b" d="M158.81,155.1a86.32,86.32,0,0,1-31.65,4.23,77.46,77.46,0,0,1-44.61-17.05c-16.47-13-26.08-30.2-29.38-50.89A78.8,78.8,0,0,1,55.92,56.2c1.08-3.62,1.11-3.73,5-3.29a340.65,340.65,0,0,0,44.77,1.91A396.15,396.15,0,0,0,148,52.23c3.1-.38,3.12-.13,2.9,3a188.26,188.26,0,0,0,0,24c.1,1.7.21,3.43.25,5.11.33,11.86,1.46,23.64,2.64,35.44,1.1,11,2.66,21.9,4.3,32.81a24.29,24.29,0,0,0,.69,2.63Z"/><path class="c" d="M0,197.06v-2.83c.6-3.24,2.81-4.8,5.82-5.49a45.91,45.91,0,0,1,5.67-1.21c1.8-.17,2.24-1.1,2.34-2.66.18-3.07.5-6.14.69-9.22a416.49,416.49,0,0,0-.75-52C12.56,107.36,10.93,91.14,8.53,75A128,128,0,0,1,7.06,62.12a6.88,6.88,0,0,1,10-6.42,5.22,5.22,0,0,1,3.1,4.2c.69,4.5,1.37,9,1.92,13.53,1.37,11.54,2.84,23.09,4,34.66.85,8.74,1.37,17.52,1.82,26.29a351.11,351.11,0,0,1-.12,43.83c-.1,1.37,0,2.75-.19,4.12-.26,2,.56,2.59,2.45,2.33,6.33-.89,12.7-1.32,19.08-1.73,10.15-.65,20.31-.82,30.48-.6,7.65.17,15.28.36,22.92.8,13,.73,25.93,1.93,38.9,2.94,4,.31,6.18,3.27,5.92,7.35-.26,3.85-2.79,6.41-6.71,6.22-6-.3-12.06-.84-18.08-1.42q-14.32-1.37-28.68-1.89c-10.49-.37-21-.93-31.51-.45-11.28.5-22.55,1.16-33.77,2.57-1.85.23-3.25.69-3.12,3.07a23.21,23.21,0,0,1-.62,4.39c-.75,5.17-5.23,7.88-10.11,6.1-2.62-1-3.79-3.14-3.55-6.66s.25-3.65-3.27-3C3.53,203.14,1.19,201.62,0,197.06Z"/><path class="c" d="M62.88,39.45a55.8,55.8,0,0,0-5.44,11.39c-.46,1.43-1.26,1.37-2.26,1.28-7.25-.69-14.51-1.26-21.74-2.06-3.08-.34-5-3-5.1-6.27-.06-3.49,1.87-6.14,5-6.79A6,6,0,0,1,35,36.76q13.44,1.12,26.87,2.31A4.69,4.69,0,0,1,62.88,39.45Z"/><path class="c" d="M158.73,155.16c4.52-1.17,8.56-3.43,13-5.63,1.19,6.65,2.51,13.09,3.43,19.59.51,3.6-1.76,6.09-5.32,6.68-3.88.69-6.8-.78-7.71-4.39-1.15-4.5-1.81-9.11-2.7-13.66-.17-.89-.4-1.76-.6-2.64Z"/><path class="a" d="M517.46,378.37c-1.28.16-1.31-.64-1.28-1.57v-6.3c-2.44,2.61-2.24,5.62-4,8-1.67-2.68-1.92-5.75-3.62-8.68-.81,3,0,5.75-1.09,8.31v-13.1c2.65,2.78,2.88,6.65,4.62,10.07,1.65-2.72,2.21-5.75,3.25-8.53.4-1.08.64-2,2.12-1.66Z"/><path class="c" d="M377.92,279.23c.13-13.57,4.11-22.84,14-28.56,14-8.09,33.43-2.77,39.23,15.14,3.83,11.8,2.56,23-5.75,32.56-12.56,14.42-35.31,11.24-44-5.87C378.89,287.61,377.72,282.37,377.92,279.23Zm7.16-2.15a27.09,27.09,0,0,0,3.83,14.86c7,11.73,21.86,13.15,30.94,2.94,7.59-8.55,8.12-23.89,1.12-33.82-7.15-10.19-20.54-11.29-29.13-2.3C387,263.86,385.24,270.2,385.09,277.08Z"/><path class="c" d="M353.74,274.65c1.43.35,2.35.59,3.28.81,5.8,1.37,10.14,5.46,10.9,10.3,1.1,6.93-1.32,12.37-7,15.75s-12.14,4.24-18.66,4.29c-3.83,0-7.67-.23-11.5-.17-2.1,0-2.9-.52-2.85-2.82.2-9.68.26-19.35.26-29q0-11.33-.26-22.65c-.05-2,.52-2.56,2.47-2.56,7.63.16,15.34-.79,22.81,1.39s11,7.71,9.54,14.89C361.74,269.63,358.31,272.4,353.74,274.65Zm-19.06,2.56v20.74c0,1.05-.21,2.13,1.45,2.21,6.07.31,12.14.25,17.9-1.71,5.11-1.73,7.16-5.18,6.86-10.51-.24-4-3.48-7.41-8.11-8.68-2.84-.78-5.69-.52-8.55-.54s-1.62-2.19-2-3.49c-.43-1.65.72-1.59,1.86-1.64a14.2,14.2,0,0,0,7.45-2.41,9,9,0,0,0,4.12-9.59c-.58-3.54-3.2-5.51-6.39-6.39a34.74,34.74,0,0,0-12-1c-2,.16-2.81.64-2.75,2.95.22,6.65.08,13.36.08,20.06Z"/><path class="c" d="M464.94,280.5c4,4.3,7.85,8.53,11.78,12.71,2.34,2.48,4.72,4.93,7.2,7.25,1.39,1.28,1.2,2.05-.22,3.2-3.56,2.86-3.54,2.95-6.74-.64-7-7.83-14-15.69-21.27-23.83a35.23,35.23,0,0,0,8.69-4.92c5.45-4.56,5.84-12.85.74-17a13.86,13.86,0,0,0-7.67-2.77c-2.43-.24-4.9,0-7.34-.17-1.45-.08-1.74.51-1.77,1.85-.4,14.7-.49,29.36,0,44v.64c.13,4.84-1,5.75-5.87,4.78-1-.2-1.15-.73-1.14-1.54,0-1.49.05-3,.05-4.47,0-16.08,0-32.17-.09-48.25,0-1.92.26-2.83,2.56-2.74,5.84.23,11.71-.45,17.52.64,3.58.69,7,1.82,9.73,4.35a14.5,14.5,0,0,1,1.62,19.85C470.64,276.19,467.84,278.12,464.94,280.5Z"/><path class="c" d="M317.3,303.47c-2.19,1.11-4.37,3.2-6.07,2.83-1.92-.38-2-3.61-3-5.59-2.06-4.4-4.07-8.84-6-13.33a2.89,2.89,0,0,0-3.11-2.06q-10.54.1-21.09,0a2.91,2.91,0,0,0-3.07,2.12c-2.51,5.83-5.2,11.58-7.7,17.4-.72,1.69-1.43,1.87-3,.93-4.31-2.67-3.75-1.46-1.87-5.57,7.57-16.55,15.3-33.06,22.8-49.62,1-2.15,2.13-2.56,4.26-2.73,2.38-.19,3,1,3.83,2.77C301.31,268.18,309.26,285.69,317.3,303.47Zm-38.75-23.65H299l-9.89-22.3-.7.08Z"/><path class="a" d="M55.27,306.65c-5.66-2.62-5.62-2.61-3.2-7.93q11.08-24.06,22.08-48.16c.82-1.81,1.62-2.83,3.91-2.7,2,.12,3.2.54,4.08,2.56q11.36,25.34,23,50.56c.84,1.82.83,2.87-1.17,3.66-1.37.54-2.65,1.33-4.24,2.15l-6-13.52c-.86-1.92-1.83-3.83-2.56-5.82-.64-1.71-1.66-2.13-3.38-2.12-6.92.09-13.84.11-20.76,0a3.1,3.1,0,0,0-3.29,2.25C61,293.94,58.11,300.29,55.27,306.65Zm12.05-26.8H87.77l-9.84-22.37-.7,0Z"/><path class="a" d="M158.29,279.13c3.43-1.44,6.32-2.75,8.73-4.92,2.19-2,3.83-4.26,4-7.31.59-7.48-3.2-11.81-11.07-12.45-2.44-.2-4.9,0-7.34-.14-1.43-.07-1.84.5-1.81,1.85,0,1.59-.2,3.2-.19,4.78.12,14.06-.32,28.12.24,42.15.08,1.92-.37,2.86-2.43,2.51a4.29,4.29,0,0,0-.64,0c-4.35-.1-3.71.64-3.71-3.68q0-25.07,0-50.14c0-3.45-.31-3.11,3-3.09,6.68,0,13.42-.68,20,1.34,8.6,2.67,12.63,9.31,10.92,17.9-1,4.85-4.53,7.79-8.07,10.71-2.34,1.92-2.36,1.85-.36,4.12,5.21,5.91,10.71,11.5,16.23,17.15,2.21,2.25,2.19,2.27-.17,4.19-.58.47-1.16.95-1.7,1.45a1.44,1.44,0,0,1-2.41-.12C173.91,296.71,166.22,288.06,158.29,279.13Z"/><path class="a" d="M11.17,277.38c0-8.62.11-17.26-.07-25.87-.05-2.51.75-3.06,3-2.89,7.54.54,15.09.36,22.64.35,2.44,0,4.88-.13,7.31-.33,1.61-.13,1.92.54,2,2,.08,3.79.15,3.8-3.68,3.79-7.24,0-14.48.05-21.73-.12-2.29-.05-2.86.68-2.82,2.87.1,4.68-.13,9.36-.13,14.06,0,4.09-.58,3.61,3.46,3.62,7.24,0,14.48.08,21.73-.11,2.3-.06,2.66.87,2.51,2.76-.13,1.62.49,3.3-2.4,3.2-7.55-.24-15.12,0-22.67-.19-2.1,0-2.74.56-2.67,2.67.22,6.49-.16,13,.22,19.47.17,2.88.12,2.94-2.92,2.9-4.27-.06-3.78.81-3.76-3.91,0-8.09,0-16.18,0-24.29Z"/><path class="c" d="M234.63,305.58c-5,0-10-.12-15,.05-2.19.08-2.63-.69-2.56-2.7.2-8.18.34-16.37.34-24.55,0-9-.14-18.07-.34-27.1,0-2,.36-2.75,2.56-2.69,4.55.13,4.53,0,4.47,4.58-.13,9.67-.29,19.34-.33,29,0,5.2.29,10.41.25,15.61,0,1.86.77,2,2.26,2,7.77-.06,15.54,0,23.3-.14,2.44-.06,2.74.89,2.67,2.94-.06,1.88,0,3.16-2.59,3C244.64,305.42,239.63,305.58,234.63,305.58Z"/><path class="a" d="M139.57,349c-.89-14.35,11.83-22.46,23.28-17.17,6.58,3,8.95,9,9.26,15.92.34,7.51-4.1,14.7-10.43,17.12a16.29,16.29,0,0,1-22-13.95C139.62,350.32,139.6,349.68,139.57,349Zm28.26-.53A16,16,0,0,0,166,340.2c-2-3.94-5.07-6.47-9.72-6.65-4.88-.19-8.39,2.1-10.57,6.28-2.94,5.64-3,11.42.23,17,4.54,7.71,14.56,7.87,19.42.38a14.27,14.27,0,0,0,2.48-8.69Z"/><path class="a" d="M400.29,346.91c.34-6.72,3.09-11.86,9-14.91,8.47-4.37,18.24-.64,22,8.13,3,7.13,1.51,16.33-3.66,21.34-4.63,4.47-10.23,5.53-16.22,3.62-6.39-2-9.67-6.91-10.87-13.28A13.22,13.22,0,0,1,400.29,346.91Zm28.31,1.58a16.67,16.67,0,0,0-3-10.18c-4.69-6.43-13.52-6.5-18.09,0-4.1,5.84-4.34,12.14-1,18.31,4.41,8.07,14.9,8.15,19.74.34a14.27,14.27,0,0,0,2.33-8.47Z"/><path class="a" d="M461.85,337.74v22.88a22.18,22.18,0,0,0,0,2.56c.2,1.75-.83,1.77-2.14,1.83-1.55.07-1.79-.7-1.67-1.92.45-4.88.32-9.77.28-14.66,0-4.47-.06-8.95-.34-13.39-.13-2.1,1-2.61,2.56-3.41,1.92-1,2.24.64,2.9,1.45,6.21,7.67,12.34,15.45,18.5,23.19.31.39.49,1,1.62.88v-3.53c0-6.39-.1-12.78,0-19.17,0-1.28-1.18-3.41,1.82-3.34,2.74.06,1.65,2,1.66,3.2,0,6.92-.12,13.84-.16,20.75a62.29,62.29,0,0,0,.24,6.69c.19,1.85-1,2.37-2.27,2.94-1.5.64-1.92-.69-2.44-1.44C476,354.48,469.22,346,461.85,337.74Z"/><path class="a" d="M116.77,249c.14-.08.23-.17.33-.19,6.63-.87,6.63-.87,6.63,5.66V302c0,4,.56,3.4-3.6,3.46-.74,0-1.49,0-2.23,0-1.06.06-1.17-.54-1.14-1.4.7-17,.13-34,.3-51C117.07,251.69,116.88,250.33,116.77,249Z"/><path class="a" d="M18.62,352.88c-6.1-2-8.67,1.51-10.29,6.61a40.2,40.2,0,0,1-1.92,4.35c-.42.93-.64,2.16-2.17,1.09-1-.7-2.13-.75-1.22-2.66,4.61-9.59,8.95-19.35,13.46-29,.54-1.18.81-2.56,2.76-2.56S21.45,332,22,333.19l12.78,28.27c.47,1,1.46,2.12-.5,3.07-1.76.86-2.56.92-3.3-1.14-1-2.88-2.56-5.57-3.67-8.42a2.85,2.85,0,0,0-3.3-2.15C22.25,353,20.43,352.88,18.62,352.88Zm.7-16.06h-.76l-5.64,12.67H24.86Z"/><path class="a" d="M273.09,365.42c-3.33-1.39-3.34-1.39-2-4.36,4.33-9.41,8.68-18.82,13-28.25.57-1.25,1-2.1,2.68-2.1s2,1,2.44,2c4.34,9.63,8.56,19.31,13.08,28.85,1.07,2.26-.05,2.56-1.51,3.37-2.19,1.22-2-.89-2.38-1.72-1.36-2.74-2.62-5.54-3.71-8.4a2.73,2.73,0,0,0-3.1-2q-5.42.16-10.87,0a2.64,2.64,0,0,0-2.86,1.88C276.33,358.32,274.68,361.86,273.09,365.42ZM286.34,336l-6.07,13.55h12Z"/><path class="a" d="M69.11,331c1.07,0,2.13.07,3.2,0,1.62-.13,1.58.93,1.65,2,.08,1.28-.64,1.32-1.61,1.28-1.6-.06-3.2-.05-4.79-.08a9,9,0,0,0-4.3,1c-3.47,1.78-3.91,5.59-.88,8a22.06,22.06,0,0,0,3.8,2.31,35.64,35.64,0,0,1,5.24,3c5.23,4,5,10.94-.64,14.34-4.37,2.64-9.25,2.79-14.18,2.24-1.45-.16-1.14-1.24-1.24-2.15-.13-1.32.75-1.37,1.64-1.28a22.37,22.37,0,0,0,9.73-.68c3.14-1,4.39-3,4-6A4.92,4.92,0,0,0,68,351.49c-2.11-1.21-4.32-2.25-6.42-3.47-4.22-2.44-6.08-5.75-5.32-9.24.91-4.24,4.29-7.14,9.06-7.67a34.8,34.8,0,0,1,3.83,0Z"/><path class="a" d="M111,331c1.06,0,2.13.06,3.2,0,1.36-.1,1.8.4,1.88,1.79.1,1.74-.88,1.51-2,1.53-2.33,0-4.67-.41-7,.33s-4.18,1.55-4.57,4.23,1.09,4.2,3.11,5.38,4.09,2.2,6.13,3.32c3.41,1.87,5.64,4.59,5.29,8.64-.37,4.28-3.06,6.86-7,8.06a24.93,24.93,0,0,1-10.67,1c-1.53-.2-2-.79-2-2.21,0-1.86,1.39-1.37,2.26-1.24a20.22,20.22,0,0,0,9.08-.75c2.11-.64,3.83-1.84,4.1-4.33a5.19,5.19,0,0,0-2.82-5.29c-2.74-1.59-5.69-2.86-8.28-4.66-5.11-3.53-4.79-10.42.4-13.84a11.33,11.33,0,0,1,5.64-1.92c1.06-.06,2.12,0,3.2,0Z"/><path class="a" d="M215.33,331c.78,0,1.43.05,2.05,0,1.32-.13,1.57.59,1.62,1.71s-.29,1.59-1.57,1.68A28,28,0,0,0,207,336.73c-4.78,2.35-7.67,6.05-7.74,11.43s2.61,8.95,7.32,11.34a27.9,27.9,0,0,0,11,2.56c1.43.09,2.1.29,2,1.92s-1,1.62-2.13,1.55c-5.43-.36-10.73-1.12-15.41-4.26a15.56,15.56,0,0,1-.06-26A27,27,0,0,1,215.33,331Z"/><path class="a" d="M332.62,350.25c0-4.26,0-8.52,0-12.78,0-2.31-.68-3.5-3.3-3.2-2.42.3-4.89.15-7.33.29-1.41.08-2.13-.19-2.12-1.87s.88-1.62,2-1.6c4.89.12,9.78.27,14.67.28,3.39,0,6.79-.16,10.18-.28,1.16,0,2,0,2,1.61s-.74,1.92-2.13,1.86c-2.56-.13-5.11,0-7.67-.26-1.92-.17-2.48.39-2.56,2.4-.24,8.61-.47,17.21.08,25.82.1,1.6-.08,2.59-2.13,2.48-1.5-.08-2-.43-2-2,.1-4.26,0-8.51,0-12.78Z"/><path class="a" d="M247.17,348.14c0,4.88-.05,9.77,0,14.66,0,1.61-.4,2.22-2.12,2.21s-1.85-.77-1.85-2.13q.06-14.81,0-29.64c0-1.61.39-2.19,2.11-2.19s1.88.74,1.87,2.12C247.14,338.16,247.17,343.15,247.17,348.14Z"/><path class="a" d="M374.92,348c0,5-.07,10,0,15,0,1.59-.49,2-2,2s-2-.55-2-2q.08-15,0-30c0-1.57.5-2,2-2s2,.46,1.92,2c-.1,5,0,10,0,15Z"/><path class="a" d="M500.35,378.32c-1.08-.8-.76-1.87-.78-2.83,0-2.22-.12-4.47,0-6.68.12-1.87-.36-2.84-2.43-2.56-.53.08-1.45.24-1.37-.75s1-.64,1.51-.64c2.12,0,4.24,0,6.39,0,.5,0,1.12,0,1.14.72a.66.66,0,0,1-.86.64c-3.45-.58-3,1.77-3,3.89C500.84,372.86,501.16,375.6,500.35,378.32Z"/></svg>