<?xml version="1.0" encoding="utf-8"?>
<!-- Generator: Adobe Illustrator 21.1.0, SVG Export Plug-In . SVG Version: 6.00 Build 0)  -->
<svg version="1.1" id="Layer_1" xmlns="http://www.w3.org/2000/svg" xmlns:xlink="http://www.w3.org/1999/xlink" x="0px" y="0px"
	 viewBox="0 0 435.7 85.2" style="enable-background:new 0 0 435.7 85.2;" xml:space="preserve">
<style type="text/css">
	.st0{fill:#C1272D;}
	.st1{fill:#FFFFFF;}
	.st2{fill:#CCCCCC;}
	.st3{fill:#F4F4F4;}
	.st4{font-family:'Roboto-Black';}
	.st5{font-size:47.1594px;}
</style>
<path class="st0" d="M100.2,42.6c0-5-1.5-9.9-4.5-14.3c-2.7-4-6.4-7.6-11.1-10.6c-9.1-5.8-21-9-33.6-9c-4.2,0-8.3,0.4-12.4,1.1
	c-2.5-2.3-5.4-4.4-8.5-6.1C13.7-4.4,0,3.4,0,3.4S12.7,13.9,10.7,23C5,28.7,1.9,35.5,1.9,42.6c0,0,0,0,0,0.1c0,0,0,0,0,0.1
	c0,7.1,3.1,13.9,8.8,19.5C12.7,71.4,0,81.8,0,81.8s13.7,7.8,30.2-0.2c3.1-1.7,6-3.8,8.5-6.1c4,0.7,8.2,1.1,12.4,1.1
	c12.6,0,24.5-3.2,33.6-9c4.7-3,8.4-6.6,11.1-10.6c3-4.5,4.5-9.3,4.5-14.3C100.2,42.7,100.2,42.6,100.2,42.6
	C100.2,42.6,100.2,42.6,100.2,42.6z"/>
<path class="st1" d="M51,15.7c23.3,0,42.2,12.1,42.2,26.9c0,14.9-18.9,26.9-42.2,26.9c-5.2,0-10.2-0.6-14.7-1.7
	c-4.7,5.6-14.9,13.4-24.9,10.9c3.2-3.5,8-9.4,7-19.1c-6-4.6-9.6-10.6-9.6-17.1C8.9,27.8,27.7,15.7,51,15.7"/>
<g>
	<g>
		<circle class="st0" cx="51" cy="43.6" r="5.6"/>
	</g>
	<g>
		<circle class="st0" cx="70.5" cy="43.6" r="5.6"/>
	</g>
	<g>
		<circle class="st0" cx="31.6" cy="43.6" r="5.6"/>
	</g>
</g>
<g>
	<path class="st2" d="M51,66.1c-5.2,0-10.2-0.5-14.7-1.5c-4.1,4.3-12.6,10.1-21.4,9.9c-1.2,1.8-2.4,3.2-3.5,4.4
		c10,2.5,20.2-5.3,24.9-10.9c4.6,1.1,9.6,1.7,14.7,1.7c23.1,0,41.9-11.9,42.2-26.6C92.9,55.8,74.1,66.1,51,66.1z"/>
</g>
<text transform="matrix(1 0 0 1.2 110.2286 61.179)" class="st3 st4 st5">CANLI DESTEK</text>
</svg>
