<?xml version="1.0" encoding="utf-8"?>
<!-- Generator: Adobe Illustrator 21.1.0, SVG Export Plug-In . SVG Version: 6.00 Build 0)  -->
<svg version="1.1" id="Layer_1" xmlns="http://www.w3.org/2000/svg" xmlns:xlink="http://www.w3.org/1999/xlink" x="0px" y="0px"
	 viewBox="0 0 435.7 85.2" style="enable-background:new 0 0 435.7 85.2;" xml:space="preserve">
<style type="text/css">
	.st0{fill:#C1272D;}
	.st1{fill:#FFFFFF;}
	.st2{fill:#CCCCCC;}
	.st3{fill:#04436A;}
</style>
<path class="st0" d="M100.2,42.6c0-5-1.5-9.9-4.5-14.3c-2.7-4-6.4-7.6-11.1-10.6c-9.1-5.8-21-9-33.6-9c-4.2,0-8.3,0.4-12.4,1.1
	c-2.5-2.3-5.4-4.4-8.5-6.1C13.7-4.4,0,3.4,0,3.4S12.7,13.9,10.7,23C5,28.7,1.9,35.5,1.9,42.6c0,0,0,0,0,0.1c0,0,0,0,0,0.1
	c0,7.1,3.1,13.9,8.8,19.5C12.7,71.4,0,81.8,0,81.8s13.7,7.8,30.2-0.2c3.1-1.7,6-3.8,8.5-6.1c4,0.7,8.2,1.1,12.4,1.1
	c12.6,0,24.5-3.2,33.6-9c4.7-3,8.4-6.6,11.1-10.6c3-4.5,4.5-9.3,4.5-14.3C100.2,42.7,100.2,42.6,100.2,42.6
	C100.2,42.6,100.2,42.6,100.2,42.6z"/>
<path class="st1" d="M51,15.7c23.3,0,42.2,12.1,42.2,26.9c0,14.9-18.9,26.9-42.2,26.9c-5.2,0-10.2-0.6-14.7-1.7
	c-4.7,5.6-14.9,13.4-24.9,10.9c3.2-3.5,8-9.4,7-19.1c-6-4.6-9.6-10.6-9.6-17.1C8.9,27.8,27.7,15.7,51,15.7"/>
<g>
	<g>
		<circle class="st0" cx="51" cy="43.6" r="5.6"/>
	</g>
	<g>
		<circle class="st0" cx="70.5" cy="43.6" r="5.6"/>
	</g>
	<g>
		<circle class="st0" cx="31.6" cy="43.6" r="5.6"/>
	</g>
</g>
<g>
	<path class="st2" d="M51,66.1c-5.2,0-10.2-0.5-14.7-1.5c-4.1,4.3-12.6,10.1-21.4,9.9c-1.2,1.8-2.4,3.2-3.5,4.4
		c10,2.5,20.2-5.3,24.9-10.9c4.6,1.1,9.6,1.7,14.7,1.7c23.1,0,41.9-11.9,42.2-26.6C92.9,55.8,74.1,66.1,51,66.1z"/>
</g>
<g>
	<path class="st3" d="M140.6,47.6c-0.1,2.8-0.7,5.3-1.9,7.4c-1.2,2.1-2.8,3.8-4.8,5s-4.5,1.8-7.1,1.8c-4.4,0-7.9-1.7-10.4-5.2
		c-2.5-3.4-3.8-8.3-3.8-14.6v-2c0-3.9,0.6-7.4,1.7-10.3s2.8-5.2,4.9-6.9c2.1-1.6,4.6-2.4,7.5-2.4c4.1,0,7.3,1.3,9.8,3.9
		c2.5,2.6,3.9,6.1,4.2,10.6h-8.1c-0.1-2.4-0.6-4.2-1.5-5.3c-1-1.1-2.4-1.6-4.4-1.6c-2,0-3.5,0.9-4.4,2.7c-0.9,1.8-1.4,4.7-1.5,8.6
		v2.8c0,4.3,0.4,7.4,1.3,9.2c0.9,1.8,2.4,2.8,4.6,2.8c1.9,0,3.3-0.5,4.3-1.6c1-1,1.5-2.7,1.6-5H140.6z"/>
	<path class="st3" d="M163.4,53.7h-11.1l-1.9,7.5h-8.6l12.3-40.2h7.6l12.4,40.2h-8.7L163.4,53.7z M154.3,46.2h7.2l-3.6-14
		L154.3,46.2z"/>
	<path class="st3" d="M204.5,61.2h-8l-11.9-25v25h-8.1V20.9h8.1l11.9,25v-25h8.1V61.2z"/>
	<path class="st3" d="M217.7,53.7h14.1v7.5h-22.2V20.9h8.1V53.7z"/>
	<path class="st3" d="M243.8,61.2h-8.1V20.9h8.1V61.2z"/>
	<path class="st3" d="M261.2,61.2V20.9H272c3,0,5.6,0.8,8,2.4c2.4,1.6,4.2,3.9,5.5,6.8c1.3,2.9,2,6.2,2,9.9v1.9c0,3.7-0.6,7-1.9,9.9
		c-1.3,2.9-3.1,5.2-5.5,6.9c-2.4,1.6-5,2.5-7.9,2.5H261.2z M269.2,28.4v25.3h2.8c2.3,0,4.1-1,5.3-3c1.2-2,1.9-4.9,1.9-8.8v-1.7
		c0-3.9-0.6-6.8-1.9-8.8c-1.2-2-3.1-3-5.4-3H269.2z"/>
	<path class="st3" d="M312.4,44.1h-12.7v9.6h15v7.5h-23.1V20.9h23.1v7.5h-15.1v8.5h12.7V44.1z"/>
	<path class="st3" d="M335.3,50.5c0-1.4-0.4-2.5-1.3-3.3s-2.3-1.6-4.4-2.5c-2.1-0.8-3.8-1.7-5.2-2.5c-4.3-2.6-6.5-6.1-6.5-10.6
		c0-2.2,0.5-4.2,1.6-5.9c1.1-1.7,2.6-3,4.6-4s4.2-1.4,6.7-1.4c2.4,0,4.6,0.5,6.5,1.5c1.9,1,3.4,2.5,4.5,4.4c1.1,1.9,1.6,4.1,1.6,6.5
		h-8.1c0-1.6-0.4-2.9-1.3-3.8c-0.8-0.9-2-1.4-3.4-1.4c-1.4,0-2.6,0.4-3.4,1.1c-0.8,0.8-1.3,1.7-1.3,2.9c0,1,0.5,2,1.4,2.8
		c0.9,0.8,2.5,1.7,4.9,2.6c2.3,0.9,4.2,1.9,5.7,2.9c3.6,2.5,5.4,6,5.4,10.4c0,3.5-1.1,6.3-3.3,8.3s-5.2,3-9.1,3
		c-2.7,0-5.2-0.6-7.4-1.8c-2.2-1.2-3.9-2.8-5-4.8c-1.1-2-1.7-4.4-1.7-7h8.1c0,2.2,0.5,3.7,1.4,4.8c0.9,1,2.4,1.5,4.5,1.5
		c1.3,0,2.4-0.3,3.2-1C334.9,52.7,335.3,51.7,335.3,50.5z"/>
	<path class="st3" d="M373.9,28.4h-10.1v32.7h-8.1V28.4h-9.9v-7.5h28V28.4z"/>
	<path class="st3" d="M398.1,44.1h-12.7v9.6h15v7.5h-23.1V20.9h23.1v7.5h-15.1v8.5h12.7V44.1z"/>
	<path class="st3" d="M415.1,46.2l-3.3,4.4v10.6h-8.1V20.9h8.1v17.7l2.8-5.1l7.2-12.6h10l-11.3,17.8l11.3,22.4h-9.6L415.1,46.2z"/>
</g>
</svg>
